<?xml version="1.0" standalone="no"?>
<!DOCTYPE svg PUBLIC "-//W3C//DTD SVG 20010904//EN"
 "http://www.w3.org/TR/2001/REC-SVG-20010904/DTD/svg10.dtd">
<svg version="1.0" xmlns="http://www.w3.org/2000/svg"
 width="913.000000pt" height="595.000000pt" viewBox="0 0 913.000000 595.000000"
 preserveAspectRatio="xMidYMid meet">

<g transform="translate(0.000000,595.000000) scale(0.100000,-0.100000)"
fill="#000000" stroke="none">
<path d="M749 5788 c-4 -162 -4 -163 -34 -208 -46 -67 -91 -94 -360 -215 -33
-15 -83 -38 -112 -51 -47 -22 -54 -23 -90 -10 -37 14 -90 38 -125 57 -27 14
-28 12 -28 -34 0 -40 3 -45 40 -66 57 -32 83 -59 110 -111 22 -42 24 -58 24
-210 1 -161 0 -166 -26 -205 -30 -46 -58 -73 -110 -104 -32 -19 -38 -28 -38
-57 0 -42 2 -41 118 13 72 34 115 37 147 13 10 -7 199 -108 307 -163 71 -36
119 -80 149 -138 22 -41 24 -55 24 -214 0 -157 -2 -173 -22 -212 -21 -39 -99
-113 -119 -113 -9 0 -51 -21 -283 -141 -62 -33 -126 -59 -142 -59 -15 0 -58
16 -96 35 -37 19 -71 35 -75 35 -5 0 -8 -15 -8 -32 1 -29 8 -38 63 -73 87 -56
107 -94 107 -210 0 -121 -27 -280 -56 -330 -23 -40 -61 -75 -97 -88 -12 -5
-17 -17 -17 -47 0 -22 2 -40 5 -40 3 0 36 14 73 32 92 44 125 42 247 -16 55
-26 120 -57 145 -68 84 -36 185 -90 207 -111 13 -11 33 -41 45 -66 21 -43 23
-59 23 -226 0 -275 18 -255 -427 -469 -76 -36 -141 -66 -146 -66 -10 0 -141
67 -159 83 -10 7 -13 -1 -13 -35 0 -42 2 -46 38 -62 53 -24 87 -57 113 -107
20 -40 22 -59 23 -209 1 -152 -1 -168 -22 -207 -24 -46 -72 -87 -120 -104 -29
-10 -32 -15 -32 -50 0 -39 7 -47 26 -30 23 21 128 71 149 71 32 0 439 -204
492 -246 67 -55 78 -97 78 -304 0 -215 -7 -233 -112 -303 -77 -51 -272 -147
-351 -172 -63 -21 -181 -16 -227 9 -45 24 -55 20 -55 -18 0 -29 7 -39 50 -72
27 -20 51 -43 54 -51 4 -9 27 -13 80 -13 69 0 76 2 96 27 32 41 78 68 290 176
147 74 201 97 221 93 24 -5 166 -69 291 -131 95 -48 194 -110 218 -137 22 -25
31 -28 90 -28 65 0 67 1 116 48 51 47 87 68 286 162 103 48 112 50 191 50 72
0 92 -4 143 -29 32 -16 113 -55 179 -87 75 -37 136 -75 164 -101 45 -43 45
-43 121 -43 l77 0 18 34 c21 39 84 82 170 117 33 13 80 34 104 47 84 44 152
62 233 62 88 0 88 0 393 -147 54 -26 126 -72 148 -94 14 -15 32 -19 82 -19 60
0 65 2 81 30 28 47 106 98 284 187 66 33 86 38 163 41 93 4 156 -12 252 -63
201 -108 224 -123 249 -166 16 -27 21 -29 81 -29 35 0 67 5 70 10 25 40 225
158 398 233 82 37 257 16 362 -43 17 -9 75 -40 130 -69 95 -49 165 -101 165
-122 0 -5 27 -9 59 -9 56 0 62 2 85 33 29 38 37 42 281 146 188 80 192 81 275
81 84 0 87 -1 269 -80 183 -79 236 -113 247 -157 6 -21 12 -23 70 -23 48 0 68
4 81 18 44 45 107 84 225 141 151 73 233 101 298 101 45 0 147 -27 186 -49 11
-6 51 -26 91 -45 88 -42 180 -109 195 -142 11 -23 16 -24 93 -24 l81 0 50 47
c52 51 151 104 358 192 27 12 68 21 92 21 l44 0 -2 351 -3 350 -25 14 c-14 7
-101 50 -195 95 -234 112 -232 111 -264 145 -65 68 -71 92 -71 293 0 175 1
185 25 232 30 58 51 73 244 170 125 63 226 100 273 100 17 0 18 20 18 350 l0
350 -38 0 c-21 0 -42 4 -48 9 -5 5 -38 21 -74 36 -241 100 -318 145 -365 215
l-30 45 -3 192 c-3 180 -2 194 19 235 28 57 66 90 147 131 37 19 83 44 102 55
70 42 257 132 273 132 16 0 17 28 17 330 l0 331 -62 28 c-35 15 -85 38 -113
50 -298 133 -325 150 -364 228 -19 38 -21 59 -21 223 0 270 -1 269 301 423
101 52 201 99 222 106 l37 13 0 229 0 229 -29 0 -29 0 -4 -177 c-3 -166 -4
-180 -26 -210 -27 -38 -88 -80 -160 -111 -50 -22 -167 -75 -277 -128 -29 -13
-63 -25 -76 -26 -45 -3 -375 152 -447 210 -74 59 -82 86 -82 277 l0 165 -50 0
-50 0 0 -70 c0 -39 -5 -114 -11 -166 -14 -131 -30 -152 -185 -251 -10 -7 -92
-49 -180 -93 l-162 -80 -40 14 c-22 8 -64 25 -93 39 -181 84 -212 97 -218 97
-5 0 -39 16 -77 36 -123 64 -145 113 -148 330 l-1 144 -36 0 -36 0 -7 -147
c-6 -124 -11 -156 -30 -199 -25 -55 -84 -104 -171 -143 -67 -30 -152 -69 -328
-150 l-68 -31 -182 90 c-345 170 -360 188 -373 448 l-7 132 -51 0 -51 0 0
-152 c0 -84 -4 -170 -8 -190 -10 -46 -84 -122 -158 -162 -177 -93 -225 -120
-234 -126 -5 -5 -26 -12 -46 -18 -30 -8 -44 -6 -85 13 -27 13 -71 33 -99 45
-171 74 -203 89 -260 126 -106 68 -114 90 -115 312 l0 152 -35 0 -35 0 0 -142
c-1 -227 -22 -256 -280 -391 -69 -35 -150 -78 -181 -95 -55 -29 -59 -30 -100
-17 -38 11 -149 56 -214 85 -61 28 -225 87 -305 112 -61 18 -60 12 -60 239 l0
209 -34 0 -34 0 -4 -174 -3 -174 -30 -43 c-33 -46 -103 -86 -300 -169 -58 -24
-67 -28 -158 -70 -65 -30 -69 -30 -110 -16 -23 8 -60 23 -82 34 -22 11 -105
48 -185 82 -80 35 -156 70 -170 79 -79 51 -100 117 -100 310 l0 141 -33 0 -33
0 4 -117 c5 -137 -14 -235 -53 -287 -26 -34 -105 -77 -290 -156 -27 -12 -74
-33 -104 -47 -125 -58 -118 -58 -244 -4 -61 27 -137 60 -167 73 -30 13 -75 33
-100 43 -71 30 -113 60 -145 101 -28 36 -30 45 -37 179 -5 77 -6 157 -3 178 5
37 5 37 -29 37 l-34 0 -3 -162z m3667 -297 c5 -4 43 -27 84 -49 357 -193 364
-201 374 -417 4 -71 2 -167 -2 -211 -11 -102 -32 -132 -145 -207 -90 -60 -201
-127 -211 -127 -3 0 -28 -13 -54 -30 -27 -16 -55 -30 -63 -30 -8 0 -106 46
-219 102 -221 111 -291 163 -304 228 -10 51 -7 371 4 411 19 68 107 134 333
249 48 25 106 55 130 67 47 25 59 27 73 14z m-3516 -53 c221 -105 369 -182
395 -209 52 -52 76 -398 35 -492 -11 -25 -34 -57 -50 -71 -43 -36 -474 -246
-505 -246 -8 0 -76 31 -150 69 -75 38 -153 76 -173 85 -39 17 -54 26 -114 68
-66 45 -79 70 -90 166 -6 48 -8 147 -5 220 5 123 7 137 31 171 32 46 61 68
151 113 39 20 131 68 205 106 97 50 142 68 160 65 14 -3 63 -24 110 -45z
m2336 36 c22 -9 62 -26 89 -39 28 -13 73 -33 100 -45 112 -48 259 -127 295
-157 20 -18 47 -55 59 -84 21 -48 22 -64 19 -208 -5 -224 -15 -240 -223 -344
-60 -30 -141 -69 -180 -87 -38 -18 -96 -45 -129 -61 -32 -16 -65 -29 -73 -29
-25 0 -418 199 -457 232 -66 54 -76 95 -77 312 -2 179 0 194 20 233 28 53 107
108 246 169 33 14 101 45 150 69 50 24 97 45 105 48 8 3 16 6 16 6 1 1 19 -6
40 -15z m-1021 -89 c276 -143 302 -163 340 -255 14 -34 20 -80 23 -182 2 -76
1 -153 -2 -172 -8 -40 -71 -115 -117 -138 -68 -33 -245 -117 -294 -138 -27
-12 -76 -35 -109 -51 -32 -16 -64 -29 -72 -29 -27 0 -424 205 -464 239 -52 46
-68 101 -76 276 -10 195 15 276 102 338 35 24 165 91 219 112 103 40 235 83
258 84 16 1 94 -33 192 -84z m3434 35 c83 -26 307 -136 354 -172 20 -17 47
-51 60 -77 20 -42 22 -61 22 -226 0 -167 -2 -183 -22 -222 -20 -36 -99 -113
-116 -113 -4 0 -42 -16 -84 -36 -43 -20 -100 -47 -128 -59 -27 -13 -81 -38
-120 -56 -38 -18 -77 -32 -86 -31 -19 1 -83 29 -359 160 -184 87 -220 131
-220 267 0 94 27 221 61 293 48 100 181 196 374 271 68 27 183 27 264 1z
m1223 -1 c101 -34 320 -147 359 -185 45 -44 59 -99 66 -259 6 -143 -12 -239
-54 -289 -28 -33 -97 -78 -178 -115 -27 -12 -72 -33 -100 -46 -27 -13 -77 -35
-110 -49 -33 -15 -68 -31 -77 -36 -27 -15 -60 -12 -104 9 -21 10 -79 38 -129
61 -85 39 -152 72 -256 126 -55 28 -92 63 -113 108 -18 38 -27 318 -12 395 12
64 69 115 201 180 245 121 372 146 507 100z m1278 -37 c103 -52 182 -102 228
-145 56 -52 87 -163 99 -359 6 -103 -12 -164 -61 -201 -55 -41 -202 -126 -341
-197 -113 -58 -139 -67 -162 -60 -29 8 -266 128 -318 160 -16 10 -49 28 -72
40 -24 12 -63 40 -87 61 -39 35 -47 49 -60 109 -21 92 -21 284 0 356 21 72 64
108 233 191 202 99 219 104 336 101 99 -3 101 -4 205 -56z m-6651 -806 c37
-19 76 -39 87 -45 10 -6 52 -26 91 -45 92 -44 172 -97 217 -143 30 -31 37 -48
50 -122 20 -110 20 -215 0 -297 -25 -98 -72 -135 -327 -262 -114 -56 -217
-102 -230 -102 -20 0 -182 72 -247 109 -8 5 -66 35 -128 67 -86 43 -122 68
-150 102 -36 44 -36 45 -44 166 -14 229 6 317 86 374 42 31 134 79 231 122 28
12 91 42 140 66 50 24 105 43 123 44 19 0 64 -15 101 -34z m1138 20 c15 -7 45
-21 66 -30 161 -68 318 -147 364 -183 23 -18 52 -50 65 -71 22 -35 23 -45 23
-227 0 -175 -2 -193 -21 -223 -25 -39 -105 -101 -171 -132 -26 -13 -116 -56
-200 -96 -83 -41 -162 -74 -175 -74 -38 0 -457 216 -500 258 -53 51 -68 110
-68 269 0 141 14 209 53 254 27 32 112 87 186 120 29 13 108 52 175 85 128 65
157 72 203 50z m1199 5 c5 -5 68 -34 139 -65 263 -112 332 -157 371 -240 22
-47 24 -64 24 -208 0 -188 -14 -236 -85 -287 -65 -46 -456 -241 -485 -241 -34
0 -409 189 -474 240 -86 66 -96 97 -96 291 1 149 3 168 23 206 32 60 81 95
272 190 239 119 287 137 311 114z m1151 -5 c66 -35 181 -86 191 -86 13 0 156
-74 192 -100 16 -11 39 -37 52 -58 22 -36 23 -44 23 -263 l0 -225 -27 -41
c-30 -45 -105 -100 -183 -133 -27 -12 -99 -46 -159 -76 -59 -30 -119 -54 -132
-54 -26 0 -397 180 -429 208 -11 10 -31 33 -45 52 -25 35 -25 35 -25 266 l0
232 40 47 c23 27 67 62 105 82 101 55 333 162 352 162 9 1 29 -6 45 -13z
m1333 -65 c296 -129 367 -180 390 -284 19 -80 19 -255 1 -330 -20 -80 -63
-115 -253 -210 -181 -90 -306 -147 -320 -147 -5 0 -35 12 -66 26 -31 15 -77
35 -102 46 -216 93 -339 159 -375 200 -42 50 -48 92 -44 300 4 132 7 157 24
184 47 72 109 110 405 242 66 29 78 31 155 27 57 -3 91 -13 185 -54z m1145 29
c28 -12 59 -25 70 -30 11 -4 73 -34 137 -65 145 -70 201 -117 217 -179 14 -56
14 -188 0 -311 -16 -145 -55 -191 -239 -277 -41 -20 -123 -59 -183 -87 -59
-28 -113 -51 -119 -51 -7 0 -116 52 -243 115 -249 123 -269 138 -301 227 -24
65 -25 296 -1 368 21 66 43 92 120 143 65 43 298 163 331 171 46 10 162 -3
211 -24z m1120 21 c22 -5 65 -19 95 -31 30 -12 66 -25 80 -30 27 -8 119 -50
236 -106 40 -19 74 -40 77 -48 3 -8 -1 -110 -8 -227 -15 -237 -29 -295 -79
-342 -33 -29 -132 -89 -206 -124 -157 -73 -248 -113 -259 -113 -22 0 -376 171
-439 213 -18 12 -44 43 -58 69 -23 45 -24 55 -24 243 0 174 2 201 20 239 27
59 68 93 185 150 55 26 123 60 150 73 82 42 147 51 230 34z m-7550 -927 c217
-109 255 -132 292 -180 28 -37 28 -40 28 -174 -1 -185 -24 -284 -80 -345 -34
-36 -143 -115 -159 -115 -2 0 -71 -32 -152 -71 -170 -82 -164 -82 -299 -19
-307 142 -384 189 -407 249 -15 40 -22 327 -9 394 18 98 44 123 229 219 50 26
135 70 187 97 52 27 105 51 117 53 29 5 33 3 253 -108z m1023 75 c329 -152
391 -194 425 -291 9 -24 23 -126 32 -228 8 -102 18 -203 21 -225 4 -39 3 -41
-38 -62 -24 -12 -103 -47 -177 -78 -74 -31 -142 -61 -150 -65 -74 -39 -173
-80 -191 -80 -13 0 -71 23 -129 51 -298 144 -327 159 -352 191 -39 50 -54 125
-54 283 0 234 30 286 215 376 47 23 138 68 204 100 65 33 120 59 123 59 2 0
34 -14 71 -31z m1155 17 c18 -8 66 -30 107 -49 41 -18 102 -44 135 -58 85 -33
218 -103 260 -135 70 -53 80 -87 80 -274 0 -163 0 -166 -27 -207 -15 -23 -42
-53 -60 -66 -93 -70 -455 -257 -497 -257 -12 0 -46 9 -74 21 -29 12 -86 35
-127 51 -41 17 -136 56 -210 88 l-135 58 -3 246 c-2 245 -2 246 23 295 14 29
41 61 65 78 22 15 50 36 62 46 12 9 25 17 30 17 4 0 27 12 51 27 51 33 66 42
137 77 30 15 66 34 80 42 32 17 64 18 103 0z m1352 -71 c188 -95 249 -139 284
-210 23 -46 24 -58 25 -254 l1 -206 -27 -45 c-34 -57 -59 -75 -183 -134 -55
-26 -130 -63 -167 -82 -68 -34 -114 -42 -146 -24 -24 13 -171 80 -177 80 -5 0
-144 63 -194 88 -18 9 -50 37 -70 61 l-36 44 -3 186 c-5 255 -4 259 71 335 37
37 88 76 127 96 36 18 91 47 123 64 32 17 82 43 110 58 29 15 61 28 72 28 11
0 97 -38 190 -85z m990 71 c11 -7 31 -17 45 -21 49 -14 366 -176 403 -206 21
-17 48 -51 60 -77 20 -43 22 -62 22 -227 0 -161 -2 -184 -20 -216 -37 -67 -93
-105 -290 -194 -33 -15 -73 -34 -90 -42 -52 -26 -144 -39 -215 -30 -50 6 -97
24 -213 82 -227 113 -255 133 -288 197 -40 78 -11 362 44 444 28 41 60 66 177
138 73 45 121 73 270 152 32 18 70 18 95 0z m1385 -78 c298 -145 320 -172 340
-429 16 -205 7 -254 -53 -302 -23 -19 -64 -47 -92 -64 -46 -27 -88 -48 -272
-134 -74 -35 -108 -38 -159 -17 -55 23 -192 78 -234 93 -19 8 -78 30 -130 50
-148 56 -171 67 -179 89 -11 33 -5 448 7 477 25 62 133 130 372 237 25 11 72
32 105 47 61 28 106 44 115 40 3 -1 84 -40 180 -87z m1175 2 c190 -96 278
-153 314 -205 29 -43 45 -173 38 -310 -7 -134 -18 -172 -58 -213 -61 -63 -312
-196 -402 -213 -114 -22 -292 41 -497 176 -130 87 -150 130 -150 335 0 130 14
195 48 234 19 21 93 73 137 97 17 8 66 35 110 59 44 23 116 62 160 86 44 23
89 43 100 43 11 1 101 -40 200 -89z m-1937 -791 c240 -106 437 -207 476 -242
52 -48 69 -116 70 -287 1 -168 -14 -223 -77 -273 -23 -18 -62 -42 -87 -52 -25
-11 -67 -32 -93 -47 -26 -15 -50 -28 -52 -28 -2 0 -37 -15 -77 -34 -173 -80
-208 -96 -215 -96 -14 0 -411 203 -443 227 -92 69 -117 125 -130 296 -11 152
-6 199 26 248 32 46 57 64 189 131 61 31 162 83 225 116 63 33 121 61 128 61
7 1 34 -8 60 -20z m1259 -25 c151 -70 304 -147 349 -177 81 -51 97 -97 110
-307 8 -130 -7 -213 -44 -254 -26 -28 -106 -84 -167 -116 -16 -9 -60 -33 -97
-53 -38 -20 -98 -53 -135 -73 -38 -20 -72 -40 -77 -45 -12 -11 -53 -12 -60 -1
-3 5 -97 55 -210 112 -233 117 -274 149 -301 230 -24 70 -24 274 -2 370 23 94
65 129 312 256 110 57 205 104 212 104 6 0 55 -21 110 -46z m-5966 -10 c48
-11 130 -44 236 -95 226 -111 238 -128 249 -364 7 -142 -11 -253 -48 -293 -40
-43 -126 -92 -283 -161 -60 -27 -168 -77 -213 -98 l-32 -16 -233 117 c-245
124 -258 132 -297 186 -21 31 -25 50 -32 160 -10 168 3 294 34 329 28 31 53
50 93 72 164 87 232 120 286 137 35 12 78 25 94 31 43 14 63 13 146 -5z m1174
1 c56 -13 91 -27 295 -113 103 -43 157 -80 190 -129 25 -36 25 -40 25 -233 l0
-196 -28 -43 c-35 -53 -101 -94 -343 -217 l-191 -97 -236 117 c-165 82 -246
128 -271 154 -52 53 -66 113 -66 277 0 163 15 226 64 274 28 27 261 154 321
174 70 24 143 45 160 45 11 1 47 -5 80 -13z m1225 -4 c59 -17 130 -47 280
-119 101 -49 170 -108 200 -173 17 -37 20 -66 20 -189 0 -132 -2 -150 -24
-196 -35 -76 -76 -108 -247 -196 -85 -44 -184 -96 -221 -115 l-68 -35 -52 22
c-29 12 -93 41 -143 65 -49 23 -108 50 -130 59 -44 20 -107 51 -143 71 -38 21
-68 53 -91 100 -21 42 -22 55 -19 232 l3 188 30 45 c43 63 72 81 315 200 51
25 162 58 200 59 14 1 54 -7 90 -18z m1150 0 c78 -22 227 -94 310 -149 30 -20
68 -56 85 -80 l30 -44 0 -201 c0 -197 -1 -203 -24 -242 -36 -58 -93 -107 -180
-151 -41 -21 -120 -65 -174 -96 -54 -32 -109 -58 -122 -58 -13 0 -46 13 -72
28 -26 16 -55 31 -63 35 -8 4 -31 17 -50 28 -19 12 -65 37 -101 55 -86 43
-160 102 -190 151 -23 37 -24 44 -24 253 0 207 1 216 23 252 34 55 67 79 199
143 113 56 212 92 261 94 12 1 54 -8 92 -18z m3567 4 c79 -18 111 -30 253 -98
220 -105 224 -111 228 -358 4 -212 -3 -253 -53 -303 -27 -27 -196 -136 -210
-136 -2 0 -61 -27 -130 -60 -88 -43 -133 -59 -148 -55 -46 14 -374 179 -410
207 -61 48 -82 98 -101 233 -43 316 -16 385 187 481 29 14 59 29 67 33 48 27
178 67 227 70 12 0 52 -6 90 -14z m-5332 -850 c17 -8 53 -23 80 -35 28 -11 62
-27 77 -35 14 -8 31 -15 37 -15 19 0 224 -102 260 -129 18 -14 45 -43 60 -66
26 -39 26 -43 26 -215 0 -174 0 -175 -28 -217 -37 -58 -55 -69 -332 -198 -44
-21 -106 -50 -138 -66 -71 -35 -127 -51 -141 -40 -6 4 -34 17 -62 29 -170 71
-329 149 -364 179 -64 53 -70 80 -70 307 0 190 2 208 21 246 23 44 81 95 144
125 22 11 47 25 55 31 8 6 38 20 66 32 28 12 80 35 115 51 97 44 125 46 194
16z m3570 -7 c28 -10 59 -23 70 -28 11 -5 49 -21 85 -36 217 -88 279 -133 299
-216 22 -90 26 -314 7 -400 -26 -116 -68 -148 -351 -268 -50 -21 -94 -41 -151
-68 -28 -14 -34 -13 -98 17 -37 17 -69 31 -71 31 -2 0 -38 16 -82 36 -166 76
-286 140 -315 169 -53 51 -59 81 -61 269 -2 195 5 221 76 281 37 32 386 212
452 233 35 11 71 6 140 -20z m-5978 6 c117 -39 420 -184 457 -219 53 -49 59
-77 53 -231 -8 -175 -32 -272 -79 -321 -26 -27 -139 -103 -154 -103 -5 0 -150
-68 -254 -119 -45 -23 -91 -41 -101 -41 -11 0 -52 18 -92 40 -39 22 -128 68
-197 102 -127 64 -201 122 -220 174 -15 39 -23 300 -12 386 16 121 26 130 285
259 173 87 232 101 314 73z m1207 -5 c131 -40 371 -157 414 -202 44 -45 62
-133 62 -306 0 -262 -23 -294 -295 -411 -27 -12 -63 -27 -80 -35 -16 -8 -61
-28 -99 -45 l-69 -31 -84 36 c-353 152 -411 189 -439 283 -25 84 -26 355 -1
433 24 77 49 97 223 183 156 77 250 115 285 116 9 0 47 -9 83 -21z m2423 -15
c292 -134 339 -164 372 -229 22 -45 24 -58 25 -254 2 -303 8 -294 -329 -451
-188 -87 -172 -84 -242 -50 -32 16 -123 60 -203 99 -159 76 -165 80 -200 131
-25 35 -25 36 -25 270 l0 235 27 40 c33 47 71 74 203 138 258 126 255 125 372
71z m1118 16 c22 -11 44 -19 49 -20 7 0 93 -42 256 -126 83 -42 138 -91 163
-143 20 -42 22 -62 22 -211 0 -248 -7 -258 -278 -391 -89 -44 -188 -94 -219
-110 l-58 -29 -50 20 c-27 11 -57 24 -67 30 -10 5 -54 26 -98 45 -44 20 -96
44 -115 55 -165 87 -201 114 -232 173 -20 38 -22 56 -23 212 0 252 3 257 319
414 221 110 254 118 331 81z m2561 -75 c255 -129 281 -156 309 -320 25 -146
24 -269 -3 -322 -36 -69 -83 -98 -453 -277 l-77 -37 -98 49 c-55 28 -155 77
-224 110 -225 109 -250 148 -250 382 0 211 28 262 189 343 48 24 96 49 106 54
41 22 151 71 175 78 14 4 34 14 45 21 42 30 86 17 281 -81z m-6721 -770 c28
-14 54 -25 58 -25 22 0 357 -175 390 -203 50 -42 67 -101 74 -253 4 -93 2
-138 -11 -197 -16 -72 -21 -80 -69 -122 -32 -28 -106 -72 -192 -114 -187 -92
-228 -105 -318 -99 -67 4 -86 11 -232 85 -199 99 -234 121 -275 173 -32 40
-33 45 -42 174 -12 174 0 271 37 321 26 33 105 86 197 132 20 10 92 46 160 80
170 85 154 82 223 48z m1247 -16 c242 -120 322 -164 383 -210 86 -65 90 -76
90 -284 l0 -180 -29 -46 c-34 -53 -84 -88 -286 -195 -46 -24 -119 -54 -132
-54 -8 0 -19 -5 -25 -11 -6 -6 -40 -12 -75 -12 -70 0 -131 18 -277 82 -52 22
-99 41 -104 41 -13 0 -127 69 -154 93 -39 35 -53 110 -52 274 1 245 12 262
264 398 39 21 95 52 125 68 113 62 146 76 167 77 12 0 59 -19 105 -41z m1341
-68 c243 -122 291 -155 318 -219 25 -57 26 -218 2 -345 -16 -89 -17 -91 -75
-149 -32 -32 -62 -58 -67 -58 -6 0 -49 -18 -98 -41 -48 -22 -106 -49 -128 -59
-22 -10 -71 -33 -110 -51 -38 -18 -77 -32 -85 -31 -32 1 -418 188 -470 227
-19 14 -45 45 -57 68 -20 39 -22 56 -23 226 0 167 2 188 21 225 26 51 79 92
205 157 55 28 131 68 169 88 83 43 144 69 166 70 9 1 113 -48 232 -108z m1090
28 c236 -118 254 -130 305 -203 l27 -39 0 -218 0 -217 -30 -43 c-17 -24 -48
-56 -70 -71 -33 -22 -185 -101 -294 -152 -13 -6 -63 -11 -110 -11 -95 0 -129
13 -311 119 -107 62 -125 76 -158 123 l-27 38 0 210 0 210 27 38 c35 49 89 96
146 127 26 14 66 38 90 53 24 15 53 32 65 38 12 5 36 18 52 29 43 28 87 48
108 49 10 1 91 -36 180 -80z m1055 72 c9 -4 46 -22 82 -39 259 -122 378 -190
423 -240 31 -34 49 -128 51 -262 1 -157 -13 -220 -63 -268 -31 -30 -217 -129
-321 -171 -38 -15 -71 -29 -142 -60 -26 -12 -55 -21 -66 -21 -10 0 -66 23
-123 51 -450 220 -445 214 -462 432 -7 90 -7 148 1 195 10 63 14 70 65 117 40
38 103 75 253 150 259 130 267 133 302 116z m2413 -21 c106 -44 387 -188 416
-213 13 -12 34 -38 46 -57 21 -33 22 -46 22 -245 0 -208 0 -210 -25 -243 -27
-36 -115 -95 -195 -131 -27 -12 -77 -35 -110 -51 -195 -93 -216 -100 -253 -81
-20 10 -61 28 -157 71 -204 91 -273 136 -305 200 -18 35 -20 59 -20 230 0 211
5 231 70 297 33 33 132 103 147 103 4 0 30 16 57 35 27 19 53 35 57 35 4 0 38
18 75 40 38 22 76 40 85 40 9 0 50 -14 90 -30z m-987 -91 c225 -113 255 -133
294 -192 26 -40 27 -47 26 -172 0 -166 -22 -258 -72 -309 -19 -20 -75 -59
-125 -88 -96 -55 -117 -66 -232 -118 -137 -63 -127 -62 -220 -24 -81 33 -71
29 -328 149 -114 53 -143 110 -153 301 -6 100 -4 136 11 199 23 95 55 132 171
189 44 22 99 51 124 65 78 45 223 100 264 101 30 0 85 -23 240 -101z"/>
</g>
</svg>
