<?xml version="1.0" standalone="no"?>
<!DOCTYPE svg PUBLIC "-//W3C//DTD SVG 20010904//EN"
 "http://www.w3.org/TR/2001/REC-SVG-20010904/DTD/svg10.dtd">
<svg version="1.0" xmlns="http://www.w3.org/2000/svg"
 width="300.000000pt" height="200.000000pt" viewBox="0 0 300.000000 200.000000"
 preserveAspectRatio="xMidYMid meet">
<metadata>
Created by potrace 1.10, written by Peter Selinger 2001-2011
</metadata>
<g transform="translate(0.000000,200.000000) scale(0.100000,-0.100000)"
fill="#000000" stroke="none">
<path d="M33 1980 c-46 -28 -41 -35 7 -10 38 19 49 30 33 30 -5 0 -23 -9 -40
-20z"/>
<path d="M138 1974 c41 -25 42 -28 42 -78 0 -50 -1 -51 -45 -75 l-44 -23 -46
25 c-58 33 -59 20 0 -15 43 -26 45 -29 45 -75 0 -47 -1 -49 -45 -73 -25 -14
-45 -28 -45 -32 0 -5 21 4 48 19 l47 26 43 -27 c40 -25 42 -28 42 -76 0 -48
-1 -50 -45 -75 l-44 -26 -47 27 c-26 16 -44 23 -41 17 4 -7 26 -22 48 -35 39
-22 40 -23 37 -72 -3 -48 -5 -52 -46 -74 -24 -13 -41 -26 -38 -29 2 -3 23 5
46 18 l41 23 44 -24 c44 -24 45 -25 45 -76 0 -52 -1 -53 -46 -78 l-45 -25 -40
26 c-22 14 -42 23 -45 20 -3 -3 15 -17 40 -32 45 -26 46 -28 46 -76 0 -47 -2
-49 -39 -69 -22 -11 -42 -24 -46 -30 -10 -16 2 -12 45 15 l40 26 45 -27 c44
-25 45 -27 45 -77 0 -50 -2 -53 -40 -74 -49 -29 -52 -29 -100 2 -22 14 -40 21
-40 16 0 -5 19 -20 43 -33 40 -22 42 -26 45 -73 3 -50 3 -50 -43 -75 -25 -13
-45 -28 -45 -33 0 -5 20 3 45 18 l46 26 42 -23 c41 -23 42 -24 42 -78 0 -54
-1 -55 -42 -78 l-42 -23 -46 26 c-25 15 -45 23 -45 18 0 -5 20 -19 45 -33 44
-24 45 -26 45 -72 0 -46 -2 -49 -47 -78 -56 -34 -49 -40 9 -8 l39 22 44 -24
c44 -24 45 -25 45 -76 0 -51 -1 -53 -45 -78 l-45 -27 -40 26 c-43 27 -55 31
-45 15 4 -6 24 -19 46 -30 37 -20 39 -22 39 -70 0 -47 -2 -50 -42 -74 -49 -29
-40 -34 11 -7 34 18 35 18 68 -2 19 -11 36 -17 38 -15 3 3 -11 13 -30 24 -34
18 -35 21 -35 74 0 55 0 55 44 78 l44 24 45 -26 c44 -26 45 -27 43 -77 -2 -48
-5 -53 -42 -75 -46 -28 -35 -32 15 -5 34 18 35 18 68 -2 19 -11 36 -17 40 -14
3 4 -11 14 -31 23 -35 17 -36 19 -36 73 0 56 0 56 43 79 l43 23 42 -23 c41
-23 42 -24 42 -78 0 -53 -1 -56 -35 -74 -19 -11 -33 -21 -30 -24 2 -2 20 5 40
16 l35 21 35 -21 c20 -11 38 -19 40 -16 2 2 -11 12 -30 23 -34 17 -35 21 -35
74 0 56 0 56 43 79 l43 23 47 -26 c46 -26 47 -28 47 -75 0 -46 -2 -50 -40 -71
-22 -12 -38 -25 -35 -27 2 -2 20 5 40 16 l35 21 35 -21 c20 -11 38 -18 40 -16
3 3 -11 13 -30 24 -34 18 -35 21 -35 74 0 54 1 55 41 77 l41 22 39 -22 c38
-22 39 -23 39 -79 0 -32 -3 -58 -7 -58 -5 0 -19 -10 -33 -21 l-25 -21 38 21
c37 20 37 20 70 1 17 -11 37 -20 42 -20 6 0 -9 12 -32 26 -42 25 -43 26 -40
75 3 47 6 52 45 75 l43 26 44 -27 c44 -25 45 -27 45 -76 0 -46 -2 -51 -35 -71
-20 -11 -34 -22 -32 -25 3 -2 19 5 37 16 33 20 33 20 73 0 52 -27 58 -19 7 10
-38 21 -40 25 -40 71 0 47 1 49 46 74 l45 25 45 -21 44 -22 0 -56 c0 -55 -1
-57 -36 -74 -20 -9 -34 -19 -31 -23 4 -3 22 4 41 15 33 20 34 20 65 1 17 -10
37 -19 44 -19 6 0 -7 12 -30 26 -41 24 -43 27 -43 74 0 47 1 49 45 75 l45 26
41 -24 c38 -23 41 -28 44 -76 2 -51 2 -52 -39 -76 -22 -14 -35 -25 -29 -25 7
0 27 9 44 19 31 19 32 19 65 -1 19 -11 37 -18 40 -15 3 2 -11 14 -31 26 -35
20 -36 23 -33 73 3 50 5 54 45 76 l42 23 46 -26 c44 -26 45 -28 45 -75 0 -47
-2 -50 -42 -74 -24 -14 -38 -26 -31 -26 6 0 27 9 45 20 33 19 34 19 63 0 17
-11 37 -20 45 -20 8 0 -3 10 -25 23 -38 21 -40 26 -43 74 l-3 52 45 26 45 26
46 -26 c44 -26 45 -28 45 -75 0 -47 -2 -50 -42 -74 -49 -29 -40 -34 11 -7 34
18 35 18 68 -2 19 -11 36 -17 40 -14 3 4 -11 14 -31 23 -35 17 -36 19 -36 73
0 55 1 56 41 78 l41 22 49 -24 c49 -25 49 -26 49 -75 0 -46 -2 -50 -40 -71
-50 -28 -45 -37 6 -11 37 19 38 19 71 -1 19 -11 36 -17 39 -14 3 2 -11 14 -31
25 -33 20 -35 24 -35 74 0 52 1 53 44 76 l44 24 41 -26 c40 -25 41 -28 41 -79
0 -50 -2 -53 -35 -71 -19 -11 -33 -21 -30 -24 2 -2 20 5 39 16 33 20 34 20 65
1 17 -10 37 -19 44 -19 6 0 -6 11 -28 24 -40 24 -40 25 -37 78 3 50 6 55 43
76 l39 23 45 -27 c44 -25 45 -28 45 -74 0 -47 -2 -50 -42 -74 -49 -29 -40 -34
11 -7 34 18 35 18 68 -2 19 -11 36 -17 39 -14 3 2 -11 14 -31 26 -35 20 -36
23 -33 73 3 50 5 54 44 75 l41 23 41 -23 c41 -22 42 -23 42 -77 0 -53 -1 -56
-35 -74 -47 -26 -37 -33 11 -8 37 19 38 19 71 -1 19 -11 36 -17 39 -14 3 3
-13 15 -35 28 -39 21 -40 24 -38 70 2 47 4 49 49 74 l48 26 45 -26 c44 -26 45
-28 45 -75 0 -47 -2 -50 -42 -74 -24 -14 -37 -26 -31 -26 7 0 27 9 45 20 32
19 32 19 66 -2 18 -11 35 -18 38 -15 3 2 -11 14 -31 25 -33 20 -35 25 -35 71
0 49 1 51 43 76 l44 25 41 -22 c41 -23 42 -24 42 -78 0 -53 -1 -56 -35 -74
-19 -11 -33 -21 -30 -24 2 -2 19 4 38 15 33 20 34 20 71 1 51 -26 56 -17 6 11
-38 21 -40 25 -40 71 0 48 2 50 39 70 22 11 42 24 46 30 10 16 -2 12 -45 -15
l-39 -25 -46 27 c-44 27 -45 29 -45 78 0 49 1 51 44 73 l44 24 42 -22 c56 -29
63 -19 8 12 -41 22 -43 26 -46 73 -3 50 -3 50 43 75 25 13 45 28 45 33 0 5
-20 -3 -45 -18 l-46 -26 -44 26 c-44 25 -45 27 -45 75 0 48 1 50 45 75 l44 26
46 -26 c25 -15 45 -23 45 -18 0 5 -20 20 -45 33 -46 25 -46 25 -43 75 3 47 5
51 46 73 24 13 41 26 38 29 -2 3 -23 -5 -45 -18 l-40 -22 -46 24 c-45 24 -45
25 -45 76 0 51 1 52 46 77 l45 25 39 -24 c43 -27 55 -31 45 -15 -4 6 -24 19
-46 30 -37 20 -39 22 -39 69 0 48 1 50 46 76 25 15 44 29 41 31 -2 3 -23 -6
-47 -20 l-42 -24 -44 26 c-43 26 -44 28 -44 77 0 49 1 50 45 74 l46 24 40 -22
c56 -32 60 -19 4 13 -44 26 -45 28 -45 76 0 38 4 50 18 54 9 3 31 18 47 32
l30 26 -47 -27 -48 -26 -45 27 c-43 25 -45 28 -45 74 0 45 2 49 42 75 l43 28
47 -26 c27 -15 48 -24 48 -19 0 4 -20 18 -45 32 -44 24 -45 26 -45 75 0 49 1
50 45 74 25 13 43 26 41 28 -2 2 -23 -5 -46 -17 l-42 -22 -44 24 c-43 23 -44
24 -44 75 0 50 1 52 40 74 22 12 38 25 35 27 -2 2 -21 -5 -41 -17 l-36 -22
-35 21 c-19 11 -40 20 -46 20 -7 0 7 -12 31 -26 41 -24 42 -27 42 -77 0 -52
-1 -53 -44 -76 l-44 -24 -42 24 c-39 24 -42 28 -44 76 l-3 51 46 26 c25 14 40
26 32 26 -7 0 -29 -9 -47 -20 l-33 -21 -40 21 c-56 28 -65 25 -13 -6 41 -24
42 -27 42 -77 0 -51 -1 -52 -44 -76 l-45 -23 -41 23 c-40 23 -42 26 -45 75 -2
51 -1 52 37 74 22 12 37 24 34 27 -3 3 -21 -4 -41 -16 l-36 -21 -40 21 c-54
27 -60 19 -9 -10 39 -22 40 -24 40 -74 0 -51 -1 -52 -44 -75 l-44 -24 -40 21
c-37 19 -40 24 -44 66 -4 55 3 70 43 91 17 8 28 18 25 21 -3 3 -21 -5 -40 -17
l-36 -22 -36 22 c-19 12 -37 20 -40 17 -3 -2 11 -15 30 -27 34 -20 36 -25 36
-74 0 -51 -1 -53 -41 -75 l-40 -23 -45 23 c-43 24 -44 25 -44 76 0 50 1 52 40
74 22 12 38 25 35 27 -2 2 -20 -5 -40 -17 l-36 -21 -40 21 c-54 27 -60 19 -9
-10 39 -22 40 -24 40 -74 0 -51 -1 -52 -45 -76 l-45 -24 -45 24 c-44 24 -45
25 -45 76 0 50 1 52 40 74 51 29 45 37 -9 10 l-40 -21 -36 21 c-20 12 -38 19
-40 17 -3 -2 13 -15 35 -27 38 -21 40 -25 40 -72 0 -46 -2 -50 -42 -75 l-42
-27 -46 24 c-44 23 -45 26 -48 76 -3 51 -2 51 37 74 23 12 39 25 36 27 -2 2
-21 -5 -41 -17 l-36 -22 -35 21 c-19 11 -40 20 -46 20 -7 0 7 -12 31 -26 41
-24 42 -27 42 -77 0 -52 -1 -53 -44 -76 l-44 -24 -46 27 c-44 26 -46 28 -46
75 0 45 2 48 41 70 22 13 38 25 35 28 -3 3 -21 -4 -41 -16 l-36 -21 -39 20
c-55 28 -63 25 -13 -6 42 -24 43 -27 43 -77 0 -52 -1 -53 -44 -76 l-43 -24
-42 23 c-40 23 -41 25 -41 76 0 49 2 54 36 74 19 12 33 25 30 27 -3 3 -21 -5
-40 -17 l-36 -22 -36 22 c-19 12 -37 20 -40 17 -3 -3 12 -15 34 -27 38 -21 39
-23 37 -72 -2 -48 -4 -52 -44 -76 l-42 -24 -44 23 c-44 24 -45 25 -45 76 0 50
1 52 40 74 51 29 45 37 -9 10 l-40 -21 -36 21 c-20 12 -38 19 -41 16 -3 -3 13
-15 36 -28 40 -23 41 -24 38 -74 -3 -48 -5 -51 -49 -74 l-46 -25 -42 25 c-40
24 -43 28 -45 76 -3 50 -3 50 40 74 24 13 41 25 38 28 -2 2 -22 -6 -44 -18
l-40 -22 -34 20 c-47 30 -58 26 -13 -4 35 -24 37 -29 37 -78 0 -49 -2 -53 -37
-76 l-37 -24 -43 23 c-42 22 -43 23 -43 76 0 50 2 55 37 79 44 29 33 34 -14 5
-33 -19 -33 -19 -68 1 -49 30 -53 19 -5 -11 38 -23 40 -28 40 -72 0 -45 -2
-49 -41 -74 l-42 -26 -48 23 -49 22 0 53 c0 51 1 53 40 75 51 29 45 37 -9 10
l-40 -21 -36 21 c-20 12 -38 19 -41 16 -3 -3 12 -15 35 -27 40 -20 41 -22 41
-73 0 -52 0 -52 -45 -76 l-45 -24 -45 24 c-44 24 -45 25 -45 76 0 50 1 52 40
74 51 29 45 37 -9 10 l-40 -21 -36 21 c-20 12 -38 19 -40 17 -3 -2 13 -15 35
-27 39 -22 40 -24 40 -74 0 -51 -1 -52 -45 -76 l-45 -24 -45 24 c-44 24 -45
25 -45 76 0 50 1 52 40 74 22 12 38 25 35 27 -2 2 -20 -5 -40 -17 l-36 -21
-39 20 c-55 28 -63 24 -12 -6z m127 -186 c6 -5 10 -31 10 -57 0 -47 -1 -49
-45 -73 l-46 -26 -42 25 c-41 24 -42 27 -42 77 0 50 1 52 43 77 l42 26 35 -20
c19 -11 40 -24 45 -29z m166 16 c33 -21 36 -27 37 -71 1 -47 1 -48 -46 -74
l-48 -27 -42 25 c-41 24 -42 26 -42 78 0 52 1 54 43 78 23 13 47 21 52 19 6
-3 26 -16 46 -28z m229 -69 c0 -49 -1 -50 -48 -76 l-48 -27 -42 25 c-41 24
-42 26 -42 78 0 52 1 54 43 77 l42 24 47 -25 c47 -26 48 -27 48 -76z m170 0
c0 -50 -2 -54 -38 -77 l-38 -26 -42 25 c-41 24 -42 27 -42 77 0 49 2 52 42 78
l41 26 39 -25 c36 -24 38 -28 38 -78z m760 0 c0 -49 -1 -50 -46 -76 l-46 -26
-44 24 c-43 24 -44 26 -44 76 0 51 1 53 43 78 l42 26 47 -26 c47 -26 48 -27
48 -76z m178 2 c3 -54 3 -54 -39 -79 l-42 -25 -43 24 c-43 24 -44 26 -44 76 1
50 2 53 43 78 l42 26 40 -23 c38 -22 40 -26 43 -77z m200 -3 l3 -49 -50 -26
-49 -26 -41 25 c-40 23 -41 26 -41 77 0 52 1 54 42 78 l42 24 45 -26 c44 -26
46 -30 49 -77z m182 0 c0 -50 -1 -53 -42 -77 l-43 -25 -40 24 c-38 22 -40 26
-43 76 -3 53 -3 53 40 79 l43 25 43 -25 c41 -25 42 -27 42 -77z m368 3 c3 -54
3 -54 -39 -79 l-42 -25 -43 24 c-43 24 -44 26 -44 76 0 51 1 53 43 78 l42 26
40 -23 c38 -22 40 -26 43 -77z m360 62 c18 -11 22 -23 22 -65 0 -50 -1 -53
-41 -76 l-42 -25 -43 24 c-43 24 -44 26 -44 76 0 51 1 53 43 78 35 23 45 25
62 14 11 -6 30 -18 43 -26z m-1898 9 c38 -22 40 -25 40 -75 0 -50 -1 -52 -44
-76 l-44 -24 -46 26 c-39 22 -46 30 -45 56 2 51 13 75 44 94 39 25 49 25 95
-1z m191 0 c38 -21 39 -24 39 -74 0 -51 -1 -53 -44 -77 l-44 -24 -46 26 c-45
25 -46 27 -46 76 0 47 2 51 38 71 48 28 57 28 103 2z m188 -1 c28 -19 33 -29
36 -72 3 -50 3 -50 -41 -77 l-44 -27 -45 27 c-43 26 -44 29 -45 77 0 47 2 51
38 72 47 28 60 28 101 0z m941 1 c38 -22 40 -25 40 -73 -1 -48 -2 -51 -46 -77
l-45 -28 -39 26 c-38 25 -40 29 -40 79 0 49 3 55 33 74 41 26 49 26 97 -1z
m380 0 c38 -22 40 -25 40 -74 0 -50 -1 -51 -46 -76 l-46 -25 -48 26 -49 26 3
49 c3 45 7 51 42 72 48 29 55 30 104 2z m-2350 -164 c37 -25 40 -30 40 -75 0
-46 -2 -49 -45 -74 l-44 -26 -46 26 c-44 26 -45 28 -45 75 0 47 2 50 43 74 23
14 45 26 50 26 4 0 25 -12 47 -26z m187 1 c41 -25 43 -28 43 -74 0 -48 -1 -50
-45 -76 l-46 -26 -44 26 c-44 25 -45 27 -45 75 0 47 2 50 43 74 23 14 44 26
46 26 2 0 24 -11 48 -25z m190 0 c41 -25 43 -28 43 -74 0 -48 -1 -50 -45 -75
l-45 -27 -45 27 c-43 25 -45 28 -45 74 0 46 2 49 43 74 23 14 44 25 46 26 2 0
24 -11 48 -25z m174 3 c38 -21 39 -23 39 -77 0 -55 -1 -57 -40 -79 l-40 -23
-40 23 c-39 22 -40 24 -40 78 0 53 2 56 38 77 20 12 39 22 41 23 2 0 21 -10
42 -22z m195 -4 c42 -25 44 -28 44 -74 0 -47 -1 -49 -46 -74 l-46 -26 -47 25
c-45 25 -46 26 -46 76 0 47 2 51 40 73 51 31 48 31 101 0z m188 1 c42 -25 43
-26 41 -76 -2 -48 -3 -52 -44 -75 l-43 -24 -44 26 c-43 25 -44 28 -44 75 0 45
3 50 38 73 46 31 45 31 96 1z m184 3 l43 -23 -3 -55 c-3 -53 -4 -56 -44 -77
l-41 -23 -41 23 c-41 22 -42 23 -42 77 0 53 2 56 38 77 46 27 39 27 90 1z
m190 0 l43 -23 -3 -55 c-3 -53 -4 -56 -44 -77 l-41 -23 -47 26 c-45 25 -46 27
-46 74 0 46 2 49 43 74 23 14 44 25 47 26 3 0 24 -10 48 -22z m189 -3 c41 -25
43 -28 43 -74 0 -48 -1 -50 -45 -75 l-45 -27 -45 27 c-44 25 -45 27 -45 74 0
47 2 50 43 74 23 14 44 26 46 26 2 0 24 -11 48 -25z m190 0 c41 -25 43 -28 43
-74 0 -48 -1 -50 -45 -76 l-46 -26 -44 26 c-44 25 -45 27 -45 75 0 46 3 51 38
74 47 31 46 31 99 1z m183 3 c39 -22 40 -24 40 -78 0 -54 -1 -55 -42 -78 l-41
-22 -44 25 c-41 25 -43 28 -43 74 0 45 3 50 38 74 46 32 45 32 92 5z m188 0
c41 -23 42 -24 42 -75 0 -51 -1 -53 -44 -78 l-43 -25 -43 24 c-42 24 -43 25
-43 76 0 49 2 53 39 76 22 13 41 24 44 24 3 0 24 -10 48 -22z m190 0 l43 -23
-3 -55 c-3 -53 -4 -56 -44 -77 l-42 -23 -42 24 c-42 23 -43 27 -45 75 -2 49
-1 51 39 76 23 13 43 24 46 25 3 0 24 -10 48 -22z m190 0 c41 -23 42 -24 42
-75 0 -51 -1 -54 -41 -79 l-42 -26 -44 25 c-43 23 -45 26 -47 75 -3 51 -3 52
38 76 22 14 43 25 46 26 3 0 24 -10 48 -22z m-2534 -165 c44 -27 45 -27 41
-77 -3 -47 -6 -51 -45 -75 l-42 -24 -44 24 c-43 23 -44 24 -44 76 0 50 1 53
43 77 23 14 43 26 44 26 1 0 22 -12 47 -27z m224 -75 l3 -55 -44 -23 -44 -23
-41 23 c-41 23 -42 25 -42 76 0 51 1 54 42 78 l43 25 40 -23 c38 -23 40 -27
43 -78z m153 75 c48 -27 49 -29 49 -75 0 -45 -2 -48 -46 -74 l-46 -27 -44 21
-44 22 0 55 c0 52 2 56 38 79 20 14 39 25 41 25 1 1 25 -11 52 -26z m182 2
c35 -24 37 -29 37 -79 0 -52 -2 -55 -37 -76 l-38 -22 -42 22 c-42 22 -43 24
-43 75 0 49 2 54 38 78 20 14 39 26 42 26 3 1 22 -10 43 -24z m183 -1 c43 -25
44 -27 44 -77 0 -50 -2 -53 -40 -74 -49 -29 -52 -29 -101 3 -39 24 -40 27 -37
72 3 42 7 50 43 74 22 15 41 27 43 27 2 1 23 -11 48 -25z m232 -76 c3 -53 2
-53 -39 -77 l-42 -23 -48 23 -49 22 0 52 c0 51 0 52 47 78 l47 26 41 -24 c38
-23 40 -27 43 -77z m145 75 c40 -27 42 -30 42 -77 0 -45 -3 -51 -35 -72 -45
-29 -52 -29 -100 1 -37 24 -40 28 -40 73 0 45 2 49 43 74 23 14 43 27 45 27 1
1 21 -11 45 -26z m192 0 c44 -27 45 -29 45 -79 l0 -51 -49 -22 -48 -23 -42 23
c-40 23 -41 26 -41 75 0 50 1 53 43 78 23 14 43 25 44 26 1 0 23 -12 48 -27z
m185 1 c38 -25 40 -29 40 -78 0 -51 -1 -53 -41 -75 l-40 -23 -45 23 c-43 24
-44 25 -44 75 0 50 1 53 43 78 23 14 43 25 45 26 1 0 20 -12 42 -26z m240 -76
c0 -44 -2 -47 -47 -74 l-47 -27 -43 23 -44 23 3 56 c3 53 5 56 43 78 l39 22
48 -27 c47 -26 48 -28 48 -74z m178 0 l3 -53 -44 -24 -43 -24 -42 24 c-41 23
-42 25 -42 76 0 50 1 53 42 77 l43 25 40 -23 c38 -23 40 -27 43 -78z m147 75
c43 -27 45 -30 45 -75 0 -45 -3 -49 -40 -73 -48 -30 -55 -30 -99 -1 -31 20
-34 27 -35 72 -1 46 1 50 39 76 22 15 41 27 42 27 1 1 23 -11 48 -26z m185 1
c38 -26 40 -29 40 -80 0 -53 -1 -54 -42 -75 l-42 -21 -43 23 c-42 23 -43 25
-43 75 0 50 1 53 43 78 23 14 43 25 45 26 1 0 20 -12 42 -26z m194 0 c45 -25
46 -26 46 -77 0 -52 0 -52 -46 -77 l-46 -24 -47 26 c-45 26 -46 28 -47 75 0
48 1 50 45 75 25 15 47 27 47 27 1 1 22 -11 48 -25z m186 0 c38 -25 40 -29 40
-78 0 -50 -1 -52 -43 -75 l-43 -24 -42 24 c-41 23 -42 26 -42 75 0 50 1 53 43
78 23 14 43 25 45 26 1 0 20 -12 42 -26z m-1740 -240 c0 -50 0 -51 -48 -77
l-47 -26 -44 27 c-40 25 -43 31 -46 74 -3 47 -2 48 44 76 l46 29 47 -26 c47
-26 48 -27 48 -77z m175 54 c6 -5 10 -30 10 -55 1 -44 -2 -48 -43 -74 l-44
-28 -44 27 c-43 26 -44 28 -44 77 1 48 2 51 43 76 l42 26 35 -20 c19 -11 40
-24 45 -29z m1135 -55 c0 -50 -1 -52 -44 -76 l-44 -25 -41 25 c-40 23 -41 26
-41 78 0 52 1 54 42 78 l41 24 43 -26 c42 -25 43 -28 44 -78z m-2100 75 c38
-22 40 -25 40 -75 0 -51 -1 -52 -45 -77 l-46 -25 -44 27 c-44 26 -45 28 -45
77 0 47 2 51 38 71 48 28 56 28 102 2z m188 0 c41 -22 42 -24 42 -73 -1 -48
-2 -51 -45 -77 l-45 -27 -45 27 c-44 26 -45 28 -45 77 0 47 2 51 38 72 47 28
48 28 100 1z m192 -3 c38 -24 40 -28 40 -73 -1 -45 -3 -48 -45 -74 l-44 -27
-46 25 c-44 25 -45 26 -45 77 0 49 2 53 38 74 47 28 54 28 102 -2z m174 4 c34
-20 36 -24 36 -74 0 -50 -2 -53 -40 -79 l-40 -26 -40 26 c-38 26 -40 29 -40
79 0 49 2 55 33 73 41 26 49 26 91 1z m567 -1 c38 -21 39 -24 39 -74 0 -51 -1
-53 -42 -77 l-43 -25 -40 24 c-38 22 -40 26 -43 78 -3 51 -1 55 30 74 43 26
53 26 99 0z m190 0 c38 -21 39 -24 39 -74 0 -50 -1 -53 -42 -77 l-42 -25 -48
27 -48 26 2 50 c3 46 6 51 43 72 49 28 49 28 96 1z m189 -3 c37 -24 40 -28 40
-73 0 -45 -2 -48 -45 -74 l-45 -27 -45 27 c-42 26 -44 29 -45 74 0 44 3 50 38
72 47 31 54 31 102 1z m190 3 c38 -22 40 -25 40 -75 0 -50 -1 -52 -45 -76
l-45 -26 -45 26 c-44 24 -45 26 -45 76 0 49 2 53 38 74 47 28 54 28 102 1z
m184 1 c34 -20 36 -24 36 -74 0 -52 -1 -54 -42 -78 l-43 -25 -40 24 c-38 22
-40 26 -43 76 -2 52 -2 54 35 75 47 28 54 28 97 2z m377 -1 c38 -21 39 -24 39
-74 0 -51 -1 -53 -44 -77 l-44 -24 -44 25 c-44 25 -45 26 -44 75 1 45 4 52 36
73 44 29 53 29 101 2z m190 0 c38 -21 39 -24 39 -74 0 -51 -1 -53 -42 -77
l-43 -25 -40 24 c-35 21 -41 29 -47 71 -8 56 -7 58 40 83 47 24 47 24 93 -2z
m-2536 -164 c44 -25 44 -25 40 -76 -3 -49 -5 -52 -48 -75 l-44 -25 -42 26
c-40 25 -41 28 -41 79 0 50 2 53 38 73 48 28 46 28 97 -2z m183 4 c42 -23 42
-23 42 -78 0 -55 0 -55 -43 -78 l-43 -23 -42 23 c-41 23 -42 24 -42 78 0 53 1
56 38 76 47 28 40 28 90 2z m196 -4 c45 -25 46 -27 46 -73 0 -47 -1 -48 -49
-74 l-48 -27 -42 23 c-40 22 -41 23 -41 77 0 53 2 56 38 77 20 12 40 22 43 23
4 0 27 -12 53 -26z m176 4 c39 -22 40 -24 40 -78 0 -54 -1 -56 -40 -78 l-40
-23 -40 23 c-39 22 -40 24 -40 78 0 53 2 56 38 77 20 12 38 22 40 23 2 0 21
-10 42 -22z m187 -3 c41 -25 43 -28 43 -75 0 -48 -1 -50 -45 -75 l-44 -26 -46
26 c-43 26 -45 29 -45 75 0 46 2 49 43 74 23 14 44 25 46 26 2 0 24 -11 48
-25z m191 3 c42 -23 42 -23 42 -78 0 -55 0 -55 -43 -78 l-43 -23 -47 26 c-46
26 -47 28 -47 75 0 46 2 49 43 74 23 14 44 25 47 26 3 0 24 -10 48 -22z m186
-3 c36 -22 39 -27 42 -74 2 -50 2 -50 -42 -76 l-44 -26 -45 27 c-43 25 -45 28
-45 74 0 46 2 49 43 74 23 14 44 25 47 25 3 0 23 -10 44 -24z m192 -1 c42 -25
44 -28 44 -74 0 -47 -2 -49 -45 -75 l-46 -26 -44 26 c-44 25 -45 27 -45 78 0
50 2 53 38 73 48 28 46 28 98 -2z m184 4 c39 -22 40 -24 40 -78 0 -54 -1 -55
-42 -78 l-41 -22 -44 26 c-44 25 -44 26 -41 77 3 48 5 53 43 74 22 13 41 23
43 23 2 0 21 -10 42 -22z m191 -3 c43 -24 44 -26 44 -74 0 -50 -1 -51 -46 -76
l-46 -25 -42 23 c-40 22 -41 23 -41 77 0 53 1 56 38 76 48 28 43 28 93 -1z
m189 0 c38 -24 40 -28 40 -75 0 -47 -2 -51 -41 -76 l-41 -26 -44 24 c-44 23
-44 23 -44 78 0 53 1 56 38 76 48 28 46 28 92 -1z m187 0 c41 -25 43 -28 43
-74 0 -48 -1 -50 -45 -75 l-45 -27 -44 26 c-43 25 -44 27 -43 76 0 47 2 51 41
74 23 14 43 25 45 25 2 0 24 -11 48 -25z m183 3 c39 -22 40 -24 40 -78 0 -54
-1 -55 -42 -77 l-41 -23 -41 23 c-39 21 -41 25 -44 74 -3 50 -2 53 35 77 47
31 46 31 93 4z m197 -3 c41 -25 43 -28 43 -74 0 -48 -1 -50 -45 -76 l-45 -26
-50 28 c-50 28 -50 28 -48 75 3 45 5 49 48 72 25 14 47 26 49 26 2 0 24 -11
48 -25z m181 3 c41 -23 42 -24 42 -75 0 -51 -2 -54 -40 -78 -22 -14 -42 -25
-45 -25 -3 0 -23 12 -45 26 -38 25 -40 30 -40 75 0 45 3 50 38 73 20 14 39 25
42 25 3 1 24 -9 48 -21z m-2534 -164 c45 -25 46 -26 46 -77 0 -50 -2 -53 -40
-74 -49 -29 -52 -29 -100 2 -38 24 -40 28 -40 74 0 48 2 50 43 74 23 14 43 25
43 26 1 1 22 -11 48 -25z m191 -1 c43 -27 45 -30 45 -75 0 -45 -3 -49 -40 -73
-48 -30 -45 -30 -97 -3 -42 22 -43 24 -43 73 0 48 2 51 43 77 23 14 43 27 44
27 1 1 23 -11 48 -26z m190 0 c45 -28 45 -28 43 -78 -3 -47 -5 -51 -47 -74
l-44 -24 -43 24 c-43 23 -44 25 -44 76 0 50 1 52 43 76 23 14 43 25 44 26 1 1
23 -11 48 -26z m175 2 c39 -24 40 -27 40 -79 0 -51 -2 -55 -36 -75 -44 -26
-46 -26 -89 2 -32 20 -35 26 -35 73 0 48 2 53 38 77 20 14 38 26 40 26 1 1 20
-10 42 -24z m195 -2 c44 -27 45 -29 45 -78 0 -49 -1 -50 -46 -75 l-47 -24 -45
25 c-43 24 -46 28 -48 73 -1 47 0 49 44 77 25 16 47 29 49 29 1 0 23 -12 48
-27z m192 -3 c41 -24 42 -26 40 -73 -2 -46 -4 -50 -45 -74 l-43 -25 -44 23
c-44 24 -45 25 -45 76 0 50 1 52 43 76 23 14 44 24 47 23 3 0 24 -12 47 -26z
m179 4 c43 -25 44 -27 44 -78 0 -50 -1 -52 -44 -75 l-43 -24 -42 23 c-40 23
-41 25 -41 75 0 49 2 54 38 78 20 14 38 26 40 26 2 1 23 -11 48 -25z m232 -76
l3 -53 -44 -24 -44 -24 -44 24 c-42 23 -44 27 -47 74 l-3 50 48 27 48 26 40
-24 c38 -22 40 -26 43 -76z m147 75 c43 -27 45 -30 45 -75 0 -45 -3 -49 -40
-73 -22 -14 -44 -25 -50 -25 -6 0 -28 11 -50 25 -37 24 -40 28 -40 73 0 45 2
49 43 74 23 14 43 27 44 27 1 1 23 -11 48 -26z m189 1 c45 -25 46 -26 46 -77
0 -51 -1 -52 -45 -76 l-45 -24 -45 24 c-44 24 -45 25 -45 76 0 50 1 52 43 76
23 14 43 25 43 26 1 1 22 -11 48 -25z m186 0 c38 -25 40 -29 40 -78 0 -51 -1
-53 -41 -76 l-42 -23 -43 24 c-43 23 -44 25 -44 75 0 50 1 53 43 78 23 14 43
25 45 26 1 0 20 -12 42 -26z m186 0 c43 -25 44 -27 44 -77 0 -51 -1 -52 -44
-75 l-44 -24 -41 21 c-40 21 -41 22 -41 75 0 50 2 55 38 79 20 14 38 26 40 26
2 1 23 -11 48 -25z m190 0 c43 -25 44 -27 44 -78 0 -50 -1 -52 -44 -75 l-43
-24 -43 24 c-41 23 -44 26 -46 75 -2 49 -1 51 39 76 23 15 43 27 45 27 2 1 23
-11 48 -25z m232 -76 l3 -53 -44 -24 -44 -24 -43 24 c-40 23 -42 27 -45 74
l-4 51 47 26 47 26 40 -24 c38 -22 40 -26 43 -76z m-2533 -163 c0 -46 -2 -50
-44 -76 l-44 -28 -41 24 c-39 23 -41 27 -44 77 -3 53 -3 53 40 79 l43 25 45
-26 c44 -26 45 -28 45 -75z m2625 -2 c0 -50 -1 -53 -42 -77 l-42 -25 -40 24
c-39 23 -41 27 -44 77 -2 53 -2 53 40 79 l43 25 43 -25 c41 -25 42 -27 42 -78z
m-2479 75 c38 -21 39 -24 39 -74 0 -51 -1 -53 -42 -77 l-43 -25 -40 24 c-38
22 -40 26 -43 77 -3 52 -2 53 35 75 47 27 47 27 94 0z m196 -3 c40 -24 43 -28
43 -70 0 -43 -2 -46 -47 -75 l-48 -29 -40 23 c-38 23 -40 27 -43 80 -3 55 -3
55 35 75 49 26 48 26 100 -4z m177 4 c34 -20 36 -24 36 -74 0 -50 -2 -53 -40
-79 l-40 -26 -40 26 c-38 26 -40 29 -40 79 0 49 2 55 33 73 41 26 49 26 91 1z
m186 -1 c38 -22 40 -25 40 -75 0 -50 -1 -52 -44 -77 l-45 -26 -45 27 c-44 27
-46 30 -46 75 0 44 3 50 38 72 46 31 54 31 102 4z m190 2 c39 -20 40 -22 40
-74 0 -53 -1 -54 -42 -79 l-43 -25 -47 26 c-47 27 -48 28 -48 78 0 49 1 51 43
71 53 27 50 27 97 3z m189 -3 c29 -20 34 -28 37 -73 3 -49 3 -50 -41 -77 l-45
-26 -45 27 c-42 26 -44 29 -45 74 0 44 3 50 38 72 46 30 58 31 101 3z m189 1
c41 -22 42 -24 42 -74 0 -50 0 -51 -47 -77 l-48 -25 -42 25 c-42 24 -43 27
-43 77 0 48 2 52 38 73 47 28 48 28 100 1z m187 -1 c37 -21 40 -26 43 -72 3
-50 3 -50 -44 -76 l-46 -26 -44 24 c-43 24 -44 26 -44 76 0 49 2 53 38 74 46
28 48 28 97 0z m192 -2 c41 -25 43 -28 43 -73 0 -46 -2 -48 -48 -73 l-48 -27
-42 25 c-41 24 -42 26 -42 79 0 52 1 54 38 73 47 26 47 26 99 -4z m184 3 c38
-21 39 -24 39 -74 0 -51 -1 -53 -42 -77 l-43 -25 -40 24 c-38 22 -40 26 -43
77 -3 52 -2 53 35 75 47 27 47 27 94 0z m187 0 c41 -22 42 -24 42 -73 0 -49
-1 -51 -45 -78 l-46 -27 -39 25 c-39 24 -40 27 -40 79 0 50 2 56 33 74 41 26
44 26 95 0z m182 2 c39 -20 40 -22 40 -75 0 -53 -1 -54 -42 -79 l-42 -25 -40
24 c-39 23 -41 27 -44 77 -2 52 -2 54 35 75 47 27 45 27 93 3z m198 -2 c41
-22 42 -24 42 -73 0 -49 -1 -51 -46 -78 l-46 -28 -46 29 c-45 28 -47 31 -47
76 0 44 2 48 40 71 50 30 51 30 103 3z m-2351 -163 c41 -25 43 -28 43 -75 0
-48 -1 -50 -45 -76 l-45 -26 -45 26 c-44 26 -45 28 -45 75 0 47 2 50 43 75 23
14 44 25 46 26 2 0 24 -11 48 -25z m189 -1 c42 -25 44 -28 44 -74 0 -47 -2
-49 -45 -75 l-46 -26 -44 26 c-44 25 -45 27 -45 75 0 47 2 50 43 74 23 14 43
26 45 26 2 0 23 -12 48 -26z m189 0 c42 -24 44 -27 43 -74 0 -47 -1 -50 -44
-75 l-45 -26 -44 26 c-44 25 -45 27 -45 75 0 47 2 50 43 74 23 14 43 26 45 26
2 0 23 -12 47 -26z m175 4 c39 -22 40 -24 40 -78 0 -54 -1 -56 -40 -78 l-40
-23 -40 23 c-39 22 -40 24 -40 78 0 53 2 56 38 77 20 12 38 22 40 23 2 0 21
-10 42 -22z m196 -4 c42 -25 44 -28 44 -74 0 -47 -1 -49 -46 -75 l-46 -27 -45
24 c-43 24 -45 27 -48 76 -4 51 -3 51 38 76 23 13 46 24 50 25 5 1 28 -11 53
-25z m189 1 c43 -26 43 -27 41 -76 -2 -48 -5 -52 -45 -75 l-42 -26 -44 27
c-44 25 -45 27 -45 75 0 47 2 50 43 74 23 14 43 26 45 26 2 0 23 -11 47 -25z
m180 2 c38 -21 40 -25 43 -74 3 -51 2 -52 -39 -78 l-41 -27 -44 24 c-44 23
-44 23 -44 78 0 53 1 56 38 76 47 28 40 27 87 1z m193 1 c41 -23 42 -24 42
-75 0 -51 -1 -54 -41 -79 l-42 -26 -46 25 c-44 25 -46 28 -49 75 -3 49 -2 50
40 75 54 31 46 31 96 5z m188 -4 c42 -25 44 -28 44 -75 0 -47 -2 -49 -45 -74
l-44 -26 -46 26 c-43 26 -45 29 -45 75 0 46 2 49 43 74 23 14 43 25 45 26 2 0
23 -12 48 -26z m191 1 c41 -25 43 -28 43 -75 0 -48 -1 -50 -45 -75 l-44 -26
-46 26 c-43 26 -45 29 -45 75 0 46 2 49 43 74 23 14 44 25 46 26 2 0 24 -11
48 -25z m183 3 c39 -22 40 -24 40 -78 0 -54 -1 -56 -41 -78 l-40 -23 -45 26
c-43 25 -44 27 -44 75 0 47 2 50 43 74 23 14 43 26 45 26 2 0 21 -10 42 -22z
m185 -1 c38 -21 40 -25 43 -74 3 -52 3 -52 -40 -79 l-42 -27 -44 25 c-44 25
-45 26 -45 77 0 50 2 54 39 77 22 13 41 23 44 24 3 0 23 -10 45 -23z m190 1
l46 -22 -3 -56 c-3 -53 -4 -55 -45 -78 l-43 -23 -42 25 c-39 23 -42 27 -44 75
-2 49 -2 50 39 75 23 14 43 25 44 26 1 0 23 -10 48 -22z m195 -3 c38 -24 40
-28 40 -75 0 -47 -2 -51 -41 -76 l-42 -26 -44 25 c-43 23 -45 26 -48 75 -4 51
-3 51 38 76 53 31 50 31 97 1z m-2495 -239 c-3 -49 -5 -52 -46 -75 l-42 -24
-44 23 c-42 22 -43 24 -43 75 0 52 1 54 43 78 l42 25 46 -26 c46 -25 46 -25
44 -76z m183 1 l3 -54 -44 -23 -44 -23 -41 23 c-41 23 -42 25 -42 76 0 51 1
53 42 77 l43 25 40 -24 c38 -22 40 -26 43 -77z m202 1 c0 -45 -2 -47 -47 -75
l-47 -29 -43 24 c-42 23 -43 25 -43 77 0 52 1 55 41 79 l42 24 48 -26 c47 -26
49 -28 49 -74z m168 0 c2 -51 1 -54 -33 -75 -43 -28 -45 -28 -89 -2 -34 20
-36 24 -36 74 0 49 2 54 38 78 l37 25 40 -23 c38 -22 40 -26 43 -77z m146 76
c45 -25 46 -26 46 -77 0 -50 -2 -53 -40 -74 -49 -29 -52 -29 -100 2 -38 24
-40 28 -40 73 1 44 3 49 43 74 23 14 43 27 43 27 1 1 22 -11 48 -25z m234 -78
l3 -55 -42 -22 -42 -21 -49 23 -48 22 0 51 c0 50 1 51 47 78 l48 26 40 -24
c38 -22 40 -26 43 -78z m145 77 c39 -26 42 -32 44 -75 3 -46 1 -49 -37 -73
-49 -31 -51 -31 -100 0 -37 24 -40 28 -40 73 0 45 2 49 43 74 23 14 43 27 45
27 1 1 21 -11 45 -26z m237 -77 c0 -50 -1 -51 -46 -75 l-46 -25 -44 24 c-43
24 -44 25 -44 76 0 50 1 53 43 77 l42 25 48 -25 c47 -26 47 -27 47 -77z m190
3 c0 -43 -3 -48 -40 -73 -48 -32 -51 -32 -100 -3 -38 21 -40 24 -40 74 0 50 1
52 43 76 l42 24 47 -26 c47 -25 48 -27 48 -72z m190 -1 c0 -46 -2 -48 -46 -74
l-47 -28 -43 24 c-43 22 -44 23 -44 75 0 52 1 54 42 78 l42 25 48 -27 c46 -25
48 -27 48 -73z m178 -1 l3 -54 -44 -23 -44 -23 -41 23 c-41 23 -42 25 -42 76
0 51 1 53 42 77 l43 25 40 -24 c38 -22 40 -26 43 -77z m147 76 c43 -27 45 -30
45 -75 0 -45 -3 -49 -40 -73 -49 -31 -51 -31 -98 -1 -36 22 -37 25 -34 75 4
47 7 54 40 76 21 13 38 24 39 24 1 1 23 -11 48 -26z m220 -78 c0 -54 -1 -57
-38 -78 l-38 -21 -44 24 c-44 24 -45 25 -45 77 0 50 1 52 43 76 l42 24 40 -22
c39 -23 40 -24 40 -80z m205 1 c0 -50 -1 -51 -46 -76 l-46 -24 -47 26 c-45 26
-46 28 -46 76 -1 48 0 50 45 74 l45 25 48 -25 c47 -25 47 -26 47 -76z m178 1
c3 -53 3 -53 -39 -76 l-42 -24 -43 24 c-43 23 -44 25 -44 75 0 50 1 53 42 77
l43 25 40 -24 c38 -22 40 -26 43 -77z m-2570 -89 c41 -22 42 -24 42 -75 0 -50
-1 -52 -44 -77 l-45 -26 -45 27 c-45 27 -46 29 -46 78 0 47 2 51 38 71 48 28
49 28 100 2z m190 0 c41 -22 42 -24 42 -73 0 -49 -1 -51 -45 -77 l-44 -27 -46
25 c-44 25 -45 26 -45 77 0 50 2 53 38 73 48 28 49 28 100 2z m192 -3 c38 -24
40 -28 40 -74 0 -48 -1 -50 -45 -74 l-45 -26 -45 26 c-44 24 -45 26 -45 76 0
50 2 53 38 73 49 29 55 28 102 -1z m174 4 c34 -20 36 -24 36 -75 0 -52 -1 -55
-40 -79 l-40 -25 -40 26 c-38 26 -40 29 -40 79 0 49 2 55 33 73 41 26 49 26
91 1z m194 -1 c41 -22 42 -24 42 -73 0 -49 -1 -50 -48 -77 l-49 -27 -43 27
c-38 25 -42 31 -46 74 -3 46 -2 48 39 73 51 30 52 30 105 3z m187 -1 c38 -21
40 -25 41 -71 1 -47 -1 -49 -44 -77 l-45 -28 -41 24 c-39 23 -41 27 -44 77 -3
52 -2 53 35 74 49 28 51 28 98 1z m187 1 c38 -22 39 -23 36 -75 -3 -51 -5 -55
-44 -78 l-40 -24 -42 25 c-41 24 -42 27 -42 78 0 50 2 53 38 74 46 27 46 27
94 0z m188 0 c38 -22 40 -25 40 -74 0 -50 -1 -53 -42 -77 l-43 -25 -48 26 -48
27 3 50 c3 46 6 51 43 72 49 28 47 28 95 1z m186 0 c41 -21 42 -23 43 -74 0
-52 0 -53 -45 -78 l-45 -25 -44 27 c-43 26 -45 29 -45 74 0 44 3 50 38 72 46
31 48 31 98 4z m192 0 c41 -22 42 -24 42 -75 0 -50 -1 -52 -45 -76 l-45 -26
-45 26 c-44 24 -45 26 -45 76 0 50 2 53 38 73 48 28 49 28 100 2z m182 2 c39
-20 40 -22 40 -74 0 -51 -2 -54 -40 -80 l-40 -27 -45 27 c-44 25 -45 27 -45
77 0 49 2 53 38 74 46 27 44 27 92 3z m191 -2 c39 -23 39 -24 37 -76 -3 -50
-5 -54 -44 -77 l-40 -24 -42 25 c-41 25 -42 26 -42 79 0 53 1 55 38 74 47 25
45 25 93 -1z m189 0 c38 -22 40 -25 40 -75 0 -50 -1 -52 -44 -77 l-45 -26 -43
26 c-42 25 -43 28 -43 76 0 47 3 53 35 74 44 29 52 29 100 2z m190 0 c38 -22
40 -25 40 -74 0 -50 -1 -53 -42 -77 l-43 -26 -40 24 c-34 20 -41 30 -47 67
-10 55 -7 63 39 87 48 25 46 25 93 -1z"/>
<path d="M2920 1995 c0 -2 18 -14 40 -25 48 -25 53 -18 8 10 -33 20 -48 25
-48 15z"/>
</g>
</svg>
