<?xml version="1.0" standalone="no"?>
<!DOCTYPE svg PUBLIC "-//W3C//DTD SVG 20010904//EN"
 "http://www.w3.org/TR/2001/REC-SVG-20010904/DTD/svg10.dtd">
<svg version="1.0" xmlns="http://www.w3.org/2000/svg"
 width="1921.000000pt" height="1081.000000pt" viewBox="0 0 1921.000000 1081.000000"
 preserveAspectRatio="xMidYMid meet">

<g transform="translate(0.000000,1081.000000) scale(0.100000,-0.100000)"
fill="#000000" stroke="none">
<path d="M0 5410 c0 -3593 3 -5400 10 -5400 7 0 10 213 10 619 0 428 3 628 11
648 10 26 12 26 19 8 16 -40 27 -47 322 -188 158 -76 172 -86 200 -147 18 -39
20 -66 21 -210 1 -152 -1 -168 -21 -206 -34 -63 -83 -100 -247 -189 -125 -68
-155 -87 -149 -96 11 -19 57 -7 159 42 11 5 34 13 50 18 17 5 55 20 85 32 31
13 84 24 123 27 72 4 60 8 277 -84 19 -8 46 -21 60 -28 39 -19 109 -40 116
-33 17 16 -14 46 -87 84 -182 94 -245 135 -268 175 -19 34 -22 57 -28 201 -3
94 -1 193 5 236 17 120 38 136 380 286 31 14 65 30 76 36 10 6 37 17 59 25
l41 14 225 -112 c184 -91 235 -121 273 -160 58 -60 62 -78 55 -267 -9 -243
-38 -286 -267 -402 -97 -49 -140 -76 -140 -90 0 -22 81 -2 187 46 17 8 38 15
46 15 9 0 18 4 22 9 3 5 19 12 36 16 17 4 42 13 57 21 15 8 56 14 93 14 59 0
81 -6 200 -59 113 -49 229 -91 253 -91 3 0 6 11 6 24 0 19 -13 30 -74 60 -41
20 -79 36 -85 36 -8 0 -44 16 -91 41 -8 5 -29 16 -46 24 -82 42 -101 95 -111
303 -8 186 11 279 68 334 22 21 65 49 97 63 31 14 71 32 87 40 17 8 53 23 80
35 65 28 113 50 149 68 45 23 94 17 191 -26 50 -22 117 -52 150 -66 33 -15 67
-31 75 -36 8 -5 38 -23 65 -39 28 -16 61 -41 73 -54 51 -54 71 -354 33 -491
-25 -89 -58 -117 -259 -216 -64 -31 -112 -70 -112 -90 0 -7 6 -8 19 0 11 5 28
10 38 10 10 1 36 9 58 20 22 11 44 19 48 20 4 0 63 27 130 59 67 32 132 62
145 66 17 5 50 -6 125 -43 56 -27 118 -57 137 -65 19 -9 55 -24 80 -35 25 -11
62 -23 83 -27 35 -7 39 -6 35 11 -2 13 -49 42 -148 91 -175 87 -185 94 -210
151 -18 39 -20 69 -21 251 -2 192 -1 209 19 247 34 66 72 93 237 164 28 12 64
27 80 35 198 92 209 93 305 48 36 -17 90 -42 120 -56 143 -64 282 -138 314
-166 10 -9 28 -36 40 -61 19 -40 21 -62 21 -210 0 -227 -4 -234 -180 -337 -56
-32 -135 -76 -178 -97 -50 -26 -77 -46 -77 -57 0 -14 6 -15 45 -8 24 4 52 13
62 18 10 6 41 20 68 32 28 11 95 43 150 70 55 27 107 49 115 49 7 0 66 -25
130 -56 63 -31 124 -60 135 -64 11 -5 40 -18 65 -29 58 -25 115 -31 115 -12 0
13 -64 50 -234 138 -78 40 -127 93 -135 146 -9 61 -9 386 0 422 19 77 82 120
349 240 33 15 77 35 98 46 21 10 47 19 58 19 32 0 380 -173 421 -209 67 -59
72 -79 71 -326 -1 -121 -5 -233 -10 -250 -7 -23 -22 -37 -62 -57 -54 -28 -152
-87 -161 -98 -3 -4 -13 -9 -22 -13 -10 -3 -18 -11 -18 -17 0 -14 33 -12 67 4
26 13 46 22 133 58 68 29 135 41 184 34 26 -4 93 -31 149 -59 57 -29 116 -57
132 -64 17 -6 47 -19 69 -27 21 -9 48 -16 60 -16 20 0 20 1 -4 20 -40 31 -157
100 -252 147 -156 77 -182 114 -180 253 0 47 7 132 15 190 23 172 44 193 327
337 80 41 150 78 155 82 6 5 25 13 43 19 31 11 44 5 250 -99 239 -121 281
-150 315 -212 20 -39 22 -55 22 -217 0 -163 -2 -178 -23 -223 -31 -62 -71 -93
-200 -157 -116 -58 -175 -97 -166 -111 9 -16 35 -10 111 26 41 19 76 35 79 35
2 0 36 16 77 35 116 55 191 56 317 3 25 -11 54 -23 65 -28 11 -4 47 -18 80
-30 33 -13 69 -27 80 -32 29 -13 77 -15 81 -3 5 12 -18 25 -306 176 -59 31
-108 87 -115 131 -11 64 -9 351 2 378 28 66 88 104 383 242 58 27 117 55 132
63 14 8 36 15 48 15 21 0 160 -50 237 -86 17 -7 36 -14 41 -14 6 0 23 -6 39
-14 15 -8 46 -22 68 -32 22 -9 52 -23 67 -31 14 -7 32 -13 39 -13 7 0 28 -10
46 -22 l33 -23 0 -198 c0 -141 -5 -220 -16 -275 -21 -106 -36 -118 -275 -230
-25 -12 -50 -22 -55 -22 -5 0 -22 -11 -38 -23 -67 -54 15 -60 123 -11 234 108
232 108 311 107 70 0 83 -3 185 -52 147 -70 144 -68 195 -86 75 -25 103 -17
57 16 -27 19 -246 149 -251 149 -2 0 -27 15 -55 33 -101 67 -121 119 -121 318
0 196 21 245 131 307 109 62 390 196 429 206 18 4 62 -13 167 -64 79 -39 145
-70 148 -70 13 0 141 -89 161 -111 11 -13 28 -40 37 -59 16 -35 47 -251 47
-333 0 -56 -27 -136 -55 -163 -28 -26 -103 -72 -175 -107 -94 -47 -169 -91
-192 -114 l-22 -23 24 0 c46 1 179 52 315 122 83 43 184 45 265 7 124 -59 247
-108 283 -115 32 -5 37 -4 37 12 -1 20 -77 73 -165 114 -103 48 -179 106 -204
156 -23 44 -24 54 -17 173 3 69 14 164 23 211 16 83 18 87 74 140 39 38 81 66
135 90 89 39 210 93 269 121 60 28 87 19 392 -133 144 -72 185 -104 218 -169
23 -45 25 -58 25 -204 0 -144 -2 -160 -24 -209 -21 -46 -36 -61 -108 -108 -46
-31 -131 -81 -189 -112 -106 -56 -157 -95 -128 -97 27 -2 54 3 64 12 5 5 16 9
25 9 8 0 28 7 44 15 15 8 33 15 40 15 11 0 163 75 181 90 19 16 131 33 167 26
20 -3 58 -18 85 -33 180 -97 284 -138 338 -131 30 3 29 3 -25 39 -60 39 -135
82 -219 126 -72 37 -125 92 -145 150 -10 30 -20 107 -26 203 -5 85 -12 176
-15 202 -5 42 -3 48 22 66 25 17 194 101 438 218 84 40 125 45 172 21 15 -8
57 -28 93 -45 343 -161 379 -186 404 -287 20 -81 21 -270 1 -344 -24 -91 -69
-127 -343 -272 -34 -18 -61 -38 -59 -44 6 -17 34 -17 69 -1 18 8 93 38 167 66
104 39 146 50 192 50 53 0 74 -6 164 -46 103 -45 130 -56 200 -79 77 -25 95
-25 95 -1 0 12 -52 56 -66 56 -4 0 -25 9 -48 19 -23 11 -66 29 -96 41 -30 13
-79 38 -107 57 -74 49 -85 88 -91 305 -3 152 -2 174 18 233 14 41 32 73 50 89
27 22 150 85 295 151 33 15 77 35 98 46 48 24 73 24 133 -2 57 -24 73 -30 134
-55 25 -9 74 -30 109 -46 35 -16 87 -38 115 -50 71 -30 151 -93 170 -133 13
-26 16 -68 16 -198 0 -90 -3 -179 -7 -197 -12 -60 -72 -107 -273 -213 -124
-65 -150 -81 -150 -94 0 -32 86 -9 255 67 79 36 132 50 190 50 60 0 79 -5 170
-46 17 -7 53 -22 80 -34 28 -11 57 -25 66 -29 22 -12 141 -42 146 -37 3 2 0
13 -6 24 -13 24 -78 65 -186 117 -100 48 -159 95 -188 148 -21 39 -22 54 -22
242 0 215 2 224 59 280 20 19 141 95 152 95 5 0 52 20 154 67 194 89 185 86
228 65 20 -10 89 -47 152 -82 63 -35 142 -78 175 -96 36 -19 77 -52 101 -82
42 -50 42 -50 49 -159 12 -166 0 -317 -27 -362 -27 -44 -38 -53 -108 -90 -30
-16 -84 -45 -120 -65 -36 -20 -77 -42 -92 -47 -17 -7 -28 -18 -28 -30 0 -15 5
-18 33 -12 17 3 52 14 77 25 25 11 61 26 80 34 64 28 100 44 137 61 26 13 59
18 112 17 70 -2 84 -6 176 -51 55 -28 123 -58 150 -68 28 -9 59 -21 70 -25 41
-17 55 -19 60 -10 11 17 -47 58 -178 125 -227 115 -233 124 -224 337 7 187 27
288 68 339 28 36 89 77 179 121 210 103 246 118 277 118 40 0 452 -204 501
-248 58 -53 67 -88 67 -277 0 -151 -2 -173 -19 -200 -52 -80 -91 -107 -333
-236 -63 -33 -81 -59 -42 -59 12 0 35 7 52 15 18 8 92 37 166 65 104 39 146
50 192 50 53 0 74 -6 164 -46 103 -45 131 -56 197 -78 40 -13 76 -22 81 -19
31 18 -18 58 -168 137 -104 56 -180 109 -198 139 -8 16 -11 73 -10 197 4 274
30 326 208 413 50 25 113 55 140 67 28 12 77 35 110 51 71 34 91 36 142 10 21
-11 70 -34 108 -51 294 -133 299 -137 334 -213 19 -41 21 -65 21 -236 0 -174
-2 -195 -22 -241 -20 -45 -30 -55 -112 -103 -50 -29 -113 -64 -141 -77 -74
-35 -107 -61 -95 -76 16 -18 67 -5 200 52 19 8 43 19 52 24 50 27 138 50 195
50 57 0 78 -5 168 -46 17 -7 53 -22 80 -34 28 -11 58 -25 67 -30 10 -5 34 -14
55 -19 21 -5 48 -13 61 -16 37 -12 29 35 -11 61 -36 24 -186 101 -261 134 -67
30 -102 57 -129 100 -20 32 -22 46 -21 183 2 259 28 300 252 408 68 32 125 59
127 59 5 0 137 59 160 72 44 25 89 28 130 9 157 -73 262 -123 275 -131 8 -5
35 -19 60 -31 64 -32 132 -85 155 -122 18 -29 20 -49 20 -228 l0 -196 -38 -46
c-26 -32 -73 -66 -154 -114 -65 -37 -127 -73 -138 -80 -11 -6 -33 -19 -50 -27
-16 -8 -41 -24 -55 -35 l-25 -21 37 0 c20 0 40 5 43 10 3 6 14 10 24 10 27 0
138 48 231 100 53 30 115 50 157 50 44 0 83 -15 228 -85 148 -72 205 -88 205
-58 0 23 -63 65 -190 126 -106 51 -142 78 -173 134 -19 34 -21 58 -25 221 -3
172 -2 185 18 225 12 23 38 56 57 74 33 29 194 114 338 177 33 15 72 33 87 41
33 19 72 19 106 2 42 -22 90 -43 187 -83 110 -46 216 -113 246 -156 20 -27 25
-52 33 -165 12 -181 -1 -326 -35 -372 -24 -33 -114 -89 -262 -166 -69 -36 -99
-66 -83 -82 7 -7 78 14 116 33 14 7 48 23 75 34 28 12 59 25 70 30 99 44 122
50 181 50 57 0 107 -13 189 -49 117 -52 198 -81 229 -81 20 0 36 4 36 9 0 10
-93 65 -213 126 -124 64 -179 105 -207 155 -24 43 -25 52 -25 215 0 155 2 174
22 210 12 22 31 48 42 58 17 13 244 128 376 189 50 23 105 63 105 77 0 3 -4
12 -9 20 -12 19 -50 4 -300 -121 -118 -60 -222 -108 -231 -108 -10 0 -58 20
-106 43 -98 49 -190 92 -274 130 -82 38 -133 79 -166 133 l-29 49 0 185 c0
179 1 186 25 225 42 68 51 73 353 209 31 14 81 37 111 51 30 14 60 25 66 25
13 0 62 -21 223 -94 42 -20 82 -36 88 -36 6 0 23 -6 37 -14 79 -41 159 -61
182 -46 22 15 -10 37 -180 121 -172 86 -237 127 -269 169 -30 41 -61 211 -61
337 0 149 20 175 195 257 76 36 168 82 265 133 110 58 130 116 25 73 -11 -4
-45 -18 -75 -30 -67 -26 -74 -29 -180 -78 -47 -22 -115 -54 -152 -71 -37 -17
-77 -31 -89 -31 -11 0 -73 25 -137 56 -352 169 -368 179 -405 248 -20 38 -22
54 -22 221 0 153 3 185 17 212 24 42 72 86 122 111 266 131 415 202 424 202 6
0 50 -18 99 -41 158 -73 207 -96 273 -124 36 -15 79 -34 97 -41 36 -16 93 -18
93 -4 0 21 -139 99 -360 204 -130 62 -137 67 -168 117 -19 31 -22 51 -22 136
0 128 25 278 53 320 31 47 89 85 250 167 172 87 205 107 212 125 9 22 -1 24
-57 11 -50 -13 -104 -34 -213 -85 -186 -87 -228 -105 -245 -105 -23 0 -262
103 -404 175 -166 83 -181 116 -174 386 6 236 0 230 438 437 152 71 116 77
387 -59 216 -108 283 -133 297 -111 12 19 -78 86 -174 129 -14 7 -68 32 -120
56 -52 25 -111 52 -130 60 -46 21 -70 43 -100 92 -24 38 -25 47 -25 215 0 168
1 177 25 215 38 62 48 69 268 185 209 111 261 150 202 150 -35 0 -212 -72
-381 -155 -136 -67 -109 -70 -354 50 -328 162 -330 164 -330 430 0 220 6 237
115 303 88 55 427 202 464 202 16 0 47 -9 70 -19 23 -11 61 -28 86 -39 25 -11
83 -38 130 -60 47 -22 100 -43 118 -47 17 -3 34 -11 37 -16 7 -10 75 -13 75
-3 0 10 -52 48 -102 74 -26 14 -99 51 -162 84 -142 73 -204 119 -236 176 -24
43 -25 53 -25 215 0 163 1 172 25 214 15 26 39 51 60 61 193 96 252 129 314
173 39 29 75 58 79 64 4 7 15 13 22 13 8 0 15 5 15 10 0 15 -19 12 -64 -9 -23
-11 -95 -45 -161 -76 -240 -114 -264 -125 -289 -125 -26 0 -116 42 -319 148
-146 77 -186 106 -225 165 -27 42 -27 44 -27 212 0 155 2 173 22 210 27 52 62
83 148 136 101 61 353 189 373 189 9 0 31 -7 47 -16 17 -9 57 -27 90 -41 33
-14 101 -44 150 -67 50 -24 110 -50 135 -60 25 -10 60 -24 78 -32 37 -16 78
-18 86 -6 11 18 -164 121 -309 182 -44 18 -87 39 -96 47 -8 7 -20 13 -25 13
-20 0 -86 64 -106 103 -20 38 -22 57 -22 217 -1 163 1 178 22 217 29 55 117
112 282 183 140 60 237 117 222 132 -14 14 -157 -33 -297 -96 -33 -15 -76 -34
-95 -42 -19 -8 -43 -20 -54 -25 -10 -6 -36 -17 -57 -24 -44 -16 -50 -14 -349
122 -117 53 -193 105 -222 151 -22 35 -23 45 -23 237 0 199 0 200 26 240 38
58 50 66 197 140 144 72 182 95 224 138 25 24 34 27 100 27 66 0 75 -3 103
-29 36 -35 128 -84 250 -135 50 -21 99 -42 111 -48 11 -5 36 -10 55 -11 39 -2
46 17 13 36 -12 7 -48 28 -80 48 -33 19 -107 55 -167 79 -69 28 -103 46 -95
52 7 4 127 8 266 8 161 0 252 4 252 10 0 7 -3208 10 -9605 10 l-9605 0 0
-5400z m428 5365 c2 -2 -12 -6 -30 -10 -18 -4 -40 -13 -48 -20 -8 -7 -35 -22
-60 -33 -25 -11 -76 -39 -115 -61 -38 -23 -80 -41 -94 -41 -21 0 -19 4 24 46
27 25 67 58 89 72 65 41 207 69 234 47z m297 6 c50 8 910 7 923 0 14 -8 12
-11 -13 -16 -17 -4 -91 -36 -165 -73 -237 -114 -237 -114 -278 -100 -21 7 -41
15 -47 19 -13 9 -178 78 -280 116 -103 40 -135 45 -135 24 0 -11 48 -39 140
-85 195 -96 229 -120 265 -186 l30 -55 0 -185 0 -185 -30 -45 c-46 -67 -91
-94 -360 -215 -33 -15 -83 -38 -112 -51 -48 -22 -54 -23 -91 -10 -22 8 -48 19
-58 25 -11 6 -44 21 -74 34 -30 14 -89 40 -130 60 -179 83 -250 105 -250 76 0
-15 79 -65 236 -149 189 -102 202 -109 227 -132 13 -13 35 -43 47 -68 22 -41
24 -58 24 -210 1 -146 -2 -168 -19 -195 -48 -77 -86 -104 -226 -163 -52 -22
-142 -67 -200 -99 -58 -33 -111 -57 -117 -55 -9 3 -12 137 -12 532 0 452 2
531 15 543 13 13 13 16 0 27 -13 10 -15 56 -15 275 0 248 1 264 20 288 11 14
37 31 58 37 20 6 46 16 57 21 11 5 49 20 85 33 62 23 136 57 208 94 18 9 47
32 65 50 l32 34 85 -6 c47 -3 90 -5 95 -5z m1182 -3 c18 -7 33 -19 33 -28 0
-17 78 -63 231 -138 177 -85 197 -119 206 -347 6 -139 -12 -236 -52 -289 -26
-34 -105 -77 -290 -156 -27 -12 -74 -33 -104 -47 -125 -58 -118 -58 -244 -4
-61 27 -137 60 -167 73 -30 13 -75 33 -100 43 -71 30 -113 60 -145 101 -28 36
-29 44 -37 181 -5 80 -4 179 1 223 13 121 38 147 233 242 102 50 167 89 196
117 l42 41 82 0 c45 0 97 -5 115 -12z m2428 -4 c8 -9 15 -20 15 -25 0 -13 93
-71 200 -125 124 -62 186 -114 216 -177 22 -48 24 -64 24 -202 -1 -235 -20
-262 -280 -398 -69 -35 -150 -78 -181 -95 -55 -29 -59 -30 -100 -17 -38 11
-149 56 -214 85 -61 28 -225 87 -305 112 -62 18 -60 10 -60 265 0 227 1 235
24 281 28 54 77 89 201 146 44 20 100 48 125 62 25 14 57 31 73 37 35 15 35
37 -1 37 -25 0 -119 -28 -167 -50 -11 -5 -65 -28 -120 -51 -55 -22 -104 -44
-110 -48 -5 -4 -26 -12 -46 -19 -43 -14 -48 -13 -194 57 -55 27 -118 56 -140
65 -22 9 -51 23 -65 31 -33 17 -102 23 -107 8 -7 -20 47 -50 327 -181 54 -26
67 -37 100 -82 25 -35 25 -37 25 -247 l0 -211 -30 -43 c-33 -46 -103 -86 -300
-169 -58 -24 -67 -28 -158 -70 -65 -30 -69 -30 -110 -16 -23 8 -60 23 -82 34
-22 11 -105 48 -185 82 -80 35 -156 70 -170 79 -79 51 -100 116 -100 316 0
238 22 281 185 359 207 99 265 130 265 143 0 25 -99 7 -195 -37 -11 -5 -38
-16 -60 -26 -66 -28 -127 -54 -170 -74 -82 -36 -81 -37 -280 60 -102 49 -194
90 -205 90 -23 0 -35 16 -18 23 7 3 540 5 1185 6 1040 0 1174 -2 1188 -15z
m844 7 c11 -7 9 -10 -8 -16 -12 -4 -82 -35 -154 -70 -73 -34 -149 -68 -171
-75 -46 -15 -114 -7 -171 19 -22 11 -58 27 -80 36 -22 10 -72 33 -111 51 -39
19 -79 34 -87 34 -20 0 -31 17 -15 23 23 9 782 7 797 -2z m303 -19 c46 -38
114 -84 168 -113 80 -43 157 -107 186 -156 27 -47 27 -49 28 -233 1 -102 -3
-202 -7 -222 -10 -46 -84 -122 -158 -162 -177 -93 -225 -120 -234 -126 -5 -5
-26 -12 -46 -18 -30 -8 -44 -6 -85 13 -51 24 -83 38 -169 75 -146 63 -228 112
-268 159 -34 40 -40 98 -35 310 l3 170 31 43 c32 46 105 106 169 139 56 29
143 89 177 122 27 25 34 27 118 27 83 0 92 -2 122 -28z m887 19 c10 -7 8 -10
-10 -16 -13 -3 -69 -28 -124 -55 -115 -56 -192 -91 -253 -115 -51 -21 -46 -22
-250 79 -210 104 -207 102 -191 109 23 9 813 7 828 -2z m2431 -1 c13 -7 21 -7
25 0 3 6 47 10 98 10 90 0 93 -1 129 -34 20 -18 94 -62 165 -97 161 -80 207
-111 241 -162 l27 -41 0 -215 c0 -209 -1 -217 -23 -248 -27 -38 -88 -80 -160
-111 -50 -22 -167 -75 -277 -128 -29 -13 -63 -25 -76 -26 -45 -3 -375 152
-447 210 -76 60 -82 83 -82 302 0 182 1 193 24 238 25 48 61 77 174 138 113
62 192 116 192 131 0 18 -65 17 -98 -1 -15 -8 -102 -51 -194 -95 l-166 -82
-46 23 c-25 13 -78 39 -118 60 -40 20 -95 46 -123 58 -27 11 -61 27 -75 34
-38 21 -94 24 -97 6 -3 -17 62 -56 228 -139 137 -68 173 -98 188 -155 14 -56
14 -188 0 -312 -14 -131 -30 -152 -185 -251 -10 -7 -92 -49 -180 -93 l-162
-80 -40 14 c-22 8 -64 25 -93 39 -181 84 -212 97 -218 97 -5 0 -39 16 -77 36
-123 64 -145 114 -148 327 -1 178 12 242 63 290 38 37 112 80 202 118 78 33
190 100 183 110 -3 5 -15 9 -27 9 -21 0 -118 -30 -162 -50 -11 -5 -65 -28
-120 -51 -55 -22 -104 -44 -110 -48 -5 -4 -29 -13 -52 -20 -42 -12 -45 -11
-167 49 -69 33 -127 60 -131 60 -3 0 -33 14 -67 30 -59 29 -121 39 -133 21 -3
-6 27 -28 67 -51 40 -23 80 -45 88 -50 8 -5 53 -28 100 -51 47 -23 104 -57
127 -76 60 -48 67 -82 59 -277 -5 -138 -9 -167 -30 -211 -26 -56 -84 -105
-171 -144 -67 -30 -152 -69 -328 -150 l-68 -31 -182 90 c-361 178 -369 189
-371 503 l-1 179 41 37 c42 36 102 69 297 161 60 28 123 64 140 80 l31 29
1149 0 c741 1 1155 -3 1167 -9z m1461 -25 c20 -18 97 -63 171 -99 176 -87 207
-109 241 -175 27 -54 27 -58 27 -237 0 -258 -7 -272 -186 -359 -51 -25 -96
-45 -99 -45 -2 0 -33 -14 -67 -31 -35 -16 -93 -43 -130 -59 -81 -35 -73 -37
-328 92 -270 137 -271 137 -306 213 -22 46 -24 63 -24 200 0 134 2 155 21 190
34 64 65 90 170 144 55 28 117 62 139 76 22 14 43 25 47 25 17 0 83 52 78 61
-17 26 -135 -14 -335 -115 -117 -59 -131 -61 -194 -32 -104 48 -161 73 -226
101 -36 15 -76 33 -90 40 -14 7 -38 15 -54 19 -85 20 36 26 554 25 l554 0 37
-34z m918 26 c12 -8 8 -11 -15 -17 -16 -4 -90 -36 -164 -72 -242 -116 -234
-113 -277 -98 -21 8 -76 33 -123 56 -121 59 -200 93 -263 114 -10 3 -15 10
-12 16 8 13 834 13 854 1z m264 -3 c15 -7 27 -18 27 -24 0 -17 63 -56 200
-123 69 -34 144 -78 168 -99 57 -49 72 -106 73 -272 0 -193 -25 -257 -124
-316 -27 -16 -59 -35 -70 -42 -74 -44 -155 -88 -243 -132 l-102 -51 -222 97
c-251 109 -281 124 -307 162 -47 70 -55 110 -60 299 -5 171 -4 184 15 215 29
46 83 82 244 161 90 44 149 80 170 102 31 35 32 35 118 35 48 0 98 -6 113 -12z
m2152 6 c20 -8 9 -24 -17 -24 -11 0 -97 -38 -192 -84 -94 -46 -181 -87 -192
-90 -25 -8 -37 -3 -207 73 -37 17 -70 31 -75 31 -4 1 -25 9 -47 20 -22 11 -47
19 -56 20 -9 0 -30 7 -45 15 -32 16 -90 20 -98 6 -6 -9 124 -91 144 -91 6 0
58 -23 116 -52 80 -39 114 -61 141 -95 36 -43 37 -47 45 -161 5 -64 6 -163 2
-220 -6 -100 -8 -105 -44 -150 -40 -51 -59 -62 -255 -147 -71 -31 -148 -64
-170 -75 -86 -39 -92 -40 -133 -26 -22 8 -48 19 -58 25 -11 5 -35 17 -54 25
-219 92 -325 143 -361 174 -43 35 -60 106 -66 262 -9 244 22 303 204 391 56
27 104 49 107 49 17 0 145 84 140 92 -15 24 -101 -2 -329 -100 -77 -33 -150
-63 -162 -66 -21 -7 -97 27 -346 150 -27 13 -57 24 -67 24 -23 0 -35 16 -18
23 18 7 2074 8 2093 1z m2622 -15 c18 -11 33 -24 33 -28 0 -4 57 -35 128 -69
227 -109 266 -142 288 -245 18 -83 18 -307 0 -374 -26 -98 -38 -107 -321 -233
-11 -5 -51 -23 -90 -41 -149 -68 -126 -69 -301 16 -85 41 -157 75 -159 75 -3
0 -28 14 -57 32 -122 73 -141 106 -162 276 -20 163 -20 200 0 268 18 64 58
100 179 161 208 104 253 132 242 150 -7 12 -83 2 -112 -15 -11 -6 -38 -19 -60
-28 -22 -9 -85 -38 -140 -65 -146 -70 -151 -71 -194 -57 -20 7 -40 15 -46 19
-5 4 -55 26 -110 48 -55 23 -109 46 -120 51 -48 22 -142 50 -167 50 -44 0 -33
-24 22 -50 28 -13 56 -30 62 -37 6 -7 17 -13 25 -13 25 0 203 -91 238 -122 64
-55 69 -73 73 -277 5 -250 -4 -271 -146 -354 -35 -20 -66 -37 -68 -37 -3 0
-30 -11 -60 -25 -30 -14 -80 -37 -111 -51 -32 -14 -82 -37 -111 -50 -50 -24
-54 -24 -97 -10 -25 9 -53 20 -62 25 -16 9 -52 25 -138 60 -11 5 -59 27 -107
50 -125 59 -149 92 -178 241 -24 125 -25 299 -2 322 7 7 12 20 12 31 0 10 23
42 51 72 38 40 76 66 154 104 57 28 107 51 111 51 16 0 74 45 74 58 0 43 -117
0 -392 -145 l-67 -35 -163 80 c-208 101 -227 109 -263 114 -46 5 -43 -23 7
-59 24 -16 79 -49 123 -73 209 -112 216 -124 223 -330 10 -317 6 -324 -259
-458 -253 -129 -249 -127 -312 -98 -115 53 -192 88 -241 108 -162 66 -203 95
-239 162 -20 38 -22 55 -22 231 0 179 1 192 23 231 34 61 53 75 216 155 100
50 163 88 192 116 l43 42 1262 0 c1255 0 1263 0 1296 -20z m941 13 c8 -6 -8
-16 -45 -31 -32 -13 -126 -57 -210 -97 -98 -48 -158 -72 -170 -68 -33 12 -347
145 -373 159 -14 7 -41 16 -60 20 -30 7 -32 9 -15 16 26 10 856 11 873 1z
m282 -23 c38 -35 111 -76 202 -115 129 -54 207 -119 230 -194 5 -14 8 -109 8
-212 1 -204 -5 -232 -56 -280 -24 -22 -142 -88 -158 -88 -2 0 -48 -20 -101
-45 -221 -104 -228 -106 -275 -87 -92 37 -319 148 -379 186 -100 64 -131 162
-134 435 l-2 156 155 76 c85 42 185 91 221 108 36 18 79 45 95 61 25 24 37 28
94 29 60 1 68 -2 100 -30z m929 22 c12 -8 8 -11 -15 -16 -33 -7 -39 -10 -234
-103 -80 -39 -155 -73 -166 -76 -15 -5 -61 12 -145 52 -68 33 -142 67 -164 76
-22 10 -51 23 -65 30 -14 7 -38 16 -54 20 -79 19 27 26 414 26 234 0 421 -4
429 -9z m-13533 -860 c5 -4 43 -27 84 -49 357 -193 364 -201 374 -417 4 -71 2
-167 -2 -211 -11 -102 -32 -132 -145 -207 -90 -60 -201 -127 -211 -127 -3 0
-28 -13 -54 -30 -27 -16 -55 -30 -63 -30 -8 0 -106 46 -219 102 -221 111 -291
163 -304 228 -10 51 -7 371 4 411 19 68 107 134 333 249 48 25 106 55 130 67
47 25 59 27 73 14z m-3516 -53 c221 -105 369 -182 395 -209 52 -52 76 -398 35
-492 -11 -25 -34 -57 -50 -71 -43 -36 -474 -246 -505 -246 -8 0 -76 31 -150
69 -75 38 -153 76 -173 85 -39 17 -54 26 -114 68 -66 45 -79 70 -90 166 -6 48
-8 147 -5 220 5 123 7 137 31 171 32 46 61 68 151 113 39 20 131 68 205 106
97 50 142 68 160 65 14 -3 63 -24 110 -45z m2336 36 c22 -9 62 -26 89 -39 28
-13 73 -33 100 -45 112 -48 259 -127 295 -157 20 -18 47 -55 59 -84 21 -48 22
-64 19 -208 -5 -224 -15 -240 -223 -344 -60 -30 -141 -69 -180 -87 -38 -18
-96 -45 -129 -61 -32 -16 -65 -29 -73 -29 -25 0 -418 199 -457 232 -66 54 -76
95 -77 312 -2 179 0 194 20 233 28 53 107 108 246 169 33 14 101 45 150 69 50
24 97 45 105 48 8 3 16 6 16 6 1 1 19 -6 40 -15z m5902 7 c9 -6 44 -22 77 -36
112 -50 150 -67 255 -118 158 -77 189 -101 219 -167 18 -39 21 -66 21 -203 0
-245 -14 -264 -295 -401 -38 -19 -90 -43 -115 -54 -25 -11 -74 -34 -109 -50
l-64 -30 -61 28 c-34 15 -83 37 -111 49 -298 133 -325 150 -364 228 -19 38
-21 59 -21 223 0 269 0 270 296 421 146 74 223 111 252 118 1 1 10 -3 20 -8z
m1262 -26 c14 -7 90 -45 170 -84 145 -70 188 -100 224 -156 26 -39 55 -231 56
-360 0 -178 -13 -190 -464 -406 -55 -26 -65 -25 -164 22 -48 22 -105 49 -127
59 -195 89 -235 112 -272 157 l-38 46 0 206 c0 194 1 208 22 241 41 65 88 98
292 203 193 100 205 104 240 95 20 -6 47 -16 61 -23z m1156 19 c104 -43 355
-170 415 -209 77 -52 93 -73 119 -158 19 -62 46 -380 35 -409 -3 -7 -47 -30
-98 -52 -50 -21 -105 -44 -122 -52 -31 -13 -93 -40 -160 -68 -22 -10 -49 -21
-60 -26 -11 -5 -42 -18 -70 -30 -27 -11 -58 -25 -67 -30 -10 -6 -28 -10 -41
-10 -19 0 -169 72 -380 182 -115 59 -147 137 -147 353 0 239 32 289 245 389
33 16 105 50 160 76 55 26 107 50 115 53 8 3 16 6 16 6 1 1 19 -6 40 -15z
m1331 -57 c274 -136 312 -161 359 -233 16 -24 19 -51 19 -228 0 -201 0 -201
-27 -246 -15 -25 -41 -54 -59 -65 -17 -11 -43 -28 -58 -37 -14 -10 -37 -23
-51 -29 -14 -5 -92 -44 -174 -85 -82 -41 -156 -74 -164 -74 -19 0 -337 159
-401 201 -72 47 -96 94 -116 224 -10 61 -18 155 -19 210 -1 92 1 103 25 141
24 36 47 57 101 89 68 41 376 192 415 204 2 1 69 -32 150 -72z m2283 37 c14
-7 91 -45 172 -84 123 -59 155 -79 192 -121 27 -30 47 -63 50 -82 3 -18 12
-75 21 -128 22 -138 20 -270 -4 -317 -11 -20 -28 -44 -39 -53 -67 -57 -424
-239 -467 -239 -12 0 -43 11 -71 24 -57 27 -195 91 -239 111 -16 8 -52 24 -80
36 -65 30 -140 104 -148 148 -11 52 -8 372 3 412 17 60 68 99 262 199 268 138
246 129 287 118 20 -6 47 -16 61 -24z m-12955 -69 c276 -143 302 -163 340
-255 14 -34 20 -80 23 -182 2 -76 1 -153 -2 -172 -8 -40 -71 -115 -117 -138
-68 -33 -245 -117 -294 -138 -27 -12 -76 -35 -109 -51 -32 -16 -64 -29 -72
-29 -27 0 -424 205 -464 239 -52 46 -68 101 -76 276 -10 195 15 276 102 338
35 24 165 91 219 112 103 40 235 83 258 84 16 1 94 -33 192 -84z m15533 -15
c109 -55 208 -110 219 -122 12 -13 31 -42 43 -66 21 -39 22 -57 24 -235 l1
-192 -29 -46 c-16 -25 -44 -55 -64 -68 -40 -27 -315 -169 -383 -199 l-46 -20
-64 30 c-35 16 -84 39 -109 50 -290 128 -332 156 -364 240 -15 38 -17 73 -14
229 3 164 5 187 23 215 29 44 80 85 155 123 36 19 96 52 133 74 81 48 187 86
239 87 28 0 88 -26 236 -100z m-3689 49 c297 -133 354 -167 394 -242 20 -39
22 -56 22 -207 0 -237 -10 -257 -181 -358 -98 -57 -144 -82 -291 -156 -76 -38
-126 -45 -158 -22 -11 7 -51 31 -90 52 -38 21 -88 48 -110 61 -22 12 -47 26
-55 30 -35 16 -121 85 -145 118 -21 27 -29 53 -37 117 -10 89 -3 333 11 371 5
12 29 45 54 73 36 39 72 63 169 112 68 34 144 67 169 72 66 14 194 3 248 -21z
m2428 -5 c122 -54 289 -138 320 -162 18 -13 43 -41 55 -61 22 -34 23 -45 23
-241 0 -203 0 -205 -25 -239 -42 -56 -322 -204 -512 -272 -43 -15 -58 -11
-188 48 -41 19 -91 42 -110 50 -19 9 -42 19 -51 24 -9 4 -61 26 -115 49 -54
23 -119 50 -143 61 l-44 20 7 147 c9 185 33 309 71 358 54 70 315 208 470 248
47 12 185 -5 242 -30z m-10838 6 c83 -26 307 -136 354 -172 20 -17 47 -51 60
-77 20 -42 22 -61 22 -226 0 -167 -2 -183 -22 -222 -20 -36 -99 -113 -116
-113 -4 0 -42 -16 -84 -36 -43 -20 -100 -47 -128 -59 -27 -13 -81 -38 -120
-56 -38 -18 -77 -32 -86 -31 -19 1 -83 29 -359 160 -184 87 -220 131 -220 267
0 94 27 221 61 293 48 100 181 196 374 271 68 27 183 27 264 1z m1223 -1 c101
-34 320 -147 359 -185 45 -44 59 -99 66 -259 6 -143 -12 -239 -54 -289 -28
-33 -97 -78 -178 -115 -27 -12 -72 -33 -100 -46 -27 -13 -77 -35 -110 -49 -33
-15 -68 -31 -77 -36 -27 -15 -60 -12 -104 9 -21 10 -79 38 -129 61 -85 39
-152 72 -256 126 -55 28 -92 63 -113 108 -18 38 -27 318 -12 395 12 64 69 115
201 180 245 121 372 146 507 100z m1278 -37 c103 -52 182 -102 228 -145 56
-52 87 -163 99 -359 6 -103 -12 -164 -61 -201 -55 -41 -202 -126 -341 -197
-113 -58 -139 -67 -162 -60 -29 8 -266 128 -318 160 -16 10 -49 28 -72 40 -24
12 -63 40 -87 61 -39 35 -47 49 -60 109 -21 92 -21 284 0 356 21 72 64 108
233 191 202 99 219 104 336 101 99 -3 101 -4 205 -56z m-7885 -782 c10 -7 194
-105 307 -163 71 -36 119 -80 149 -138 22 -41 24 -55 24 -214 0 -157 -2 -173
-22 -212 -21 -39 -99 -113 -119 -113 -9 0 -51 -21 -283 -141 -62 -33 -126 -59
-141 -59 -15 0 -74 23 -131 51 -57 28 -158 78 -224 110 -107 53 -186 75 -185
52 1 -9 112 -83 125 -83 5 0 16 -6 24 -14 9 -8 75 -45 146 -81 72 -37 145 -78
163 -92 53 -40 72 -89 72 -190 0 -119 -27 -278 -56 -328 -34 -59 -33 -59 -314
-194 -123 -60 -173 -96 -150 -111 16 -10 50 -4 89 16 14 8 34 14 43 14 9 0 19
4 22 9 3 5 17 12 31 15 24 6 77 30 240 107 96 45 127 43 250 -15 55 -26 120
-57 145 -68 84 -36 185 -90 207 -111 13 -11 33 -41 45 -66 21 -43 23 -59 23
-226 0 -275 18 -255 -427 -469 -76 -36 -141 -66 -146 -66 -5 0 -31 12 -58 27
-249 134 -446 224 -461 209 -19 -19 41 -66 183 -141 279 -149 281 -151 314
-216 21 -40 23 -58 24 -209 1 -234 -7 -248 -219 -349 -243 -117 -278 -136
-305 -162 -22 -23 -30 -26 -39 -15 -16 19 -15 3394 0 3413 6 7 22 13 35 13 13
0 38 6 56 14 18 8 58 24 88 36 30 12 82 34 115 50 33 15 92 42 130 59 39 17
88 41 110 51 39 20 95 20 120 0z m1234 -24 c37 -19 76 -39 87 -45 10 -6 52
-26 91 -45 92 -44 172 -97 217 -143 30 -31 37 -48 50 -122 20 -110 20 -215 0
-297 -25 -98 -72 -135 -327 -262 -114 -56 -217 -102 -230 -102 -20 0 -182 72
-247 109 -8 5 -66 35 -128 67 -86 43 -122 68 -150 102 -36 44 -36 45 -44 166
-14 229 6 317 86 374 42 31 134 79 231 122 28 12 91 42 140 66 50 24 105 43
123 44 19 0 64 -15 101 -34z m1138 20 c15 -7 45 -21 66 -30 161 -68 318 -147
364 -183 23 -18 52 -50 65 -71 22 -35 23 -45 23 -227 0 -175 -2 -193 -21 -223
-25 -39 -105 -101 -171 -132 -26 -13 -116 -56 -200 -96 -83 -41 -162 -74 -175
-74 -38 0 -457 216 -500 258 -53 51 -68 110 -68 269 0 141 14 209 53 254 27
32 112 87 186 120 29 13 108 52 175 85 128 65 157 72 203 50z m1199 5 c5 -5
68 -34 139 -65 263 -112 332 -157 371 -240 22 -47 24 -64 24 -208 0 -188 -14
-236 -85 -287 -65 -46 -456 -241 -485 -241 -34 0 -409 189 -474 240 -86 66
-96 97 -96 291 1 149 3 168 23 206 32 60 81 95 272 190 239 119 287 137 311
114z m1151 -5 c66 -35 181 -86 191 -86 13 0 156 -74 192 -100 16 -11 39 -37
52 -58 22 -36 23 -44 23 -263 l0 -225 -27 -41 c-30 -45 -105 -100 -183 -133
-27 -12 -99 -46 -159 -76 -59 -30 -119 -54 -132 -54 -26 0 -397 180 -429 208
-11 10 -31 33 -45 52 -25 35 -25 35 -25 266 l0 232 40 47 c23 27 67 62 105 82
101 55 333 162 352 162 9 1 29 -6 45 -13z m4769 6 c5 -4 34 -18 64 -29 30 -12
98 -38 150 -58 159 -61 306 -131 313 -149 9 -22 -12 -335 -27 -424 -9 -45 -23
-96 -33 -113 -27 -46 -118 -102 -288 -180 -49 -23 -113 -52 -142 -65 -28 -13
-57 -24 -63 -24 -6 0 -41 14 -78 31 -37 17 -87 40 -112 51 -136 61 -297 145
-324 169 -17 15 -42 48 -55 73 -21 44 -22 55 -19 214 3 157 5 169 28 207 14
22 36 50 50 62 20 18 301 162 440 226 38 17 81 21 96 9z m1220 -13 c27 -11 58
-24 69 -29 200 -85 324 -151 375 -200 42 -40 49 -53 59 -109 17 -85 17 -262 0
-335 -11 -50 -19 -64 -63 -102 -59 -50 -456 -254 -496 -254 -27 0 -384 175
-466 229 -27 18 -61 49 -75 69 -23 35 -24 40 -24 227 l0 192 29 42 c34 49 82
83 184 131 40 19 128 63 195 96 67 34 132 62 143 63 12 0 43 -8 70 -20z m2490
-27 c11 -6 80 -40 154 -77 151 -74 163 -83 194 -140 20 -37 21 -54 21 -261 0
-218 0 -221 -24 -256 -39 -57 -98 -91 -391 -225 -106 -49 -101 -49 -203 1 -51
25 -104 50 -117 55 -14 6 -32 15 -40 20 -8 4 -46 23 -83 41 -89 43 -151 91
-185 143 -26 41 -27 44 -27 212 0 156 2 173 22 210 36 66 86 109 231 193 215
126 256 139 363 111 37 -10 75 -22 85 -27z m1066 34 c37 -16 69 -28 208 -81
105 -40 205 -88 234 -114 10 -9 30 -34 45 -56 25 -39 26 -45 29 -227 3 -176 2
-190 -18 -231 -39 -77 -71 -101 -287 -209 -114 -58 -218 -108 -230 -112 -24
-8 -46 1 -298 125 -88 43 -175 91 -192 107 -56 47 -73 116 -73 291 0 253 20
281 297 416 87 42 169 83 183 91 32 17 61 17 102 0z m1215 -2 c21 -9 51 -22
66 -30 16 -8 32 -14 37 -14 5 0 21 -5 37 -11 15 -7 55 -22 88 -34 103 -38 285
-129 290 -146 3 -8 1 -58 -4 -110 -6 -52 -15 -154 -21 -227 -16 -198 -43 -235
-245 -332 -171 -82 -280 -130 -294 -130 -6 0 -68 27 -138 61 -70 33 -148 70
-173 81 -85 39 -159 89 -189 127 -28 36 -32 50 -46 172 -19 173 -19 220 2 287
28 89 116 148 408 272 22 9 56 24 75 33 45 20 61 21 107 1z m1210 0 c21 -9 52
-22 68 -29 17 -7 47 -20 68 -29 21 -9 43 -16 49 -16 6 0 50 -17 97 -37 127
-54 200 -114 215 -176 4 -16 7 -112 7 -214 0 -248 -8 -265 -177 -366 -111 -66
-319 -167 -346 -167 -14 0 -61 16 -105 36 -43 20 -98 45 -123 56 -154 69 -239
116 -276 155 -36 37 -43 51 -57 125 -9 46 -19 138 -23 205 -6 112 -5 124 16
167 35 74 66 94 350 229 187 88 178 86 237 61z m-10637 -63 c296 -129 367
-180 390 -284 19 -80 19 -255 1 -330 -20 -80 -63 -115 -253 -210 -181 -90
-306 -147 -320 -147 -5 0 -35 12 -66 26 -31 15 -77 35 -102 46 -216 93 -339
159 -375 200 -42 50 -48 92 -44 300 4 132 7 157 24 184 47 72 109 110 405 242
66 29 78 31 155 27 57 -3 91 -13 185 -54z m1145 29 c28 -12 59 -25 70 -30 11
-4 73 -34 137 -65 145 -70 201 -117 217 -179 14 -56 14 -188 0 -311 -16 -145
-55 -191 -239 -277 -41 -20 -123 -59 -183 -87 -59 -28 -113 -51 -119 -51 -7 0
-116 52 -243 115 -249 123 -269 138 -301 227 -24 65 -25 296 -1 368 21 66 43
92 120 143 65 43 298 163 331 171 46 10 162 -3 211 -24z m1120 21 c22 -5 65
-19 95 -31 30 -12 66 -25 80 -30 27 -8 119 -50 236 -106 40 -19 74 -40 77 -48
3 -8 -1 -110 -8 -227 -15 -237 -29 -295 -79 -342 -33 -29 -132 -89 -206 -124
-157 -73 -248 -113 -259 -113 -22 0 -376 171 -439 213 -18 12 -44 43 -58 69
-23 45 -24 55 -24 243 0 174 2 201 20 239 27 59 68 93 185 150 55 26 123 60
150 73 82 42 147 51 230 34z m3637 -15 c80 -26 183 -71 295 -129 76 -39 148
-103 165 -146 6 -14 11 -107 12 -206 1 -172 0 -182 -22 -217 -41 -67 -94 -103
-267 -184 -55 -25 -135 -64 -179 -85 -43 -22 -89 -39 -102 -39 -31 0 -457 215
-500 252 -46 41 -65 103 -71 240 -5 93 -2 133 12 190 21 87 45 118 134 176 76
49 281 152 326 163 58 14 125 9 197 -15z m-11187 -912 c217 -109 255 -132 292
-180 28 -37 28 -40 28 -174 -1 -185 -24 -284 -80 -345 -34 -36 -143 -115 -159
-115 -2 0 -71 -32 -152 -71 -170 -82 -164 -82 -299 -19 -307 142 -384 189
-407 249 -15 40 -22 327 -9 394 18 98 44 123 229 219 50 26 135 70 187 97 52
27 105 51 117 53 29 5 33 3 253 -108z m1023 75 c329 -152 391 -194 425 -291 9
-24 23 -126 32 -228 8 -102 18 -203 21 -225 4 -39 3 -41 -38 -62 -24 -12 -103
-47 -177 -78 -74 -31 -142 -61 -150 -65 -74 -39 -173 -80 -191 -80 -13 0 -71
23 -129 51 -298 144 -327 159 -352 191 -39 50 -54 125 -54 283 0 234 30 286
215 376 47 23 138 68 204 100 65 33 120 59 123 59 2 0 34 -14 71 -31z m1155
17 c18 -8 66 -30 107 -49 41 -18 102 -44 135 -58 85 -33 218 -103 260 -135 70
-53 80 -87 80 -274 0 -163 0 -166 -27 -207 -15 -23 -42 -53 -60 -66 -93 -70
-455 -257 -497 -257 -12 0 -46 9 -74 21 -29 12 -86 35 -127 51 -41 17 -136 56
-210 88 l-135 58 -3 246 c-2 245 -2 246 23 295 14 29 41 61 65 78 22 15 50 36
62 46 12 9 25 17 30 17 4 0 27 12 51 27 51 33 66 42 137 77 30 15 66 34 80 42
32 17 64 18 103 0z m1352 -71 c188 -95 249 -139 284 -210 23 -46 24 -58 25
-254 l1 -206 -27 -45 c-34 -57 -59 -75 -183 -134 -55 -26 -130 -63 -167 -82
-68 -34 -114 -42 -146 -24 -24 13 -171 80 -177 80 -5 0 -144 63 -194 88 -18 9
-50 37 -70 61 l-36 44 -3 186 c-5 255 -4 259 71 335 37 37 88 76 127 96 36 18
91 47 123 64 32 17 82 43 110 58 29 15 61 28 72 28 11 0 97 -38 190 -85z m990
71 c11 -7 31 -17 45 -21 49 -14 366 -176 403 -206 21 -17 48 -51 60 -77 20
-43 22 -62 22 -227 0 -161 -2 -184 -20 -216 -37 -67 -93 -105 -290 -194 -33
-15 -73 -34 -90 -42 -52 -26 -144 -39 -215 -30 -50 6 -97 24 -213 82 -227 113
-255 133 -288 197 -40 78 -11 362 44 444 28 41 60 66 177 138 73 45 121 73
270 152 32 18 70 18 95 0z m1385 -78 c298 -145 320 -172 340 -429 16 -205 7
-254 -53 -302 -23 -19 -64 -47 -92 -64 -46 -27 -88 -48 -272 -134 -74 -35
-108 -38 -159 -17 -55 23 -192 78 -234 93 -19 8 -78 30 -130 50 -148 56 -171
67 -179 89 -11 33 -5 448 7 477 25 62 133 130 372 237 25 11 72 32 105 47 61
28 106 44 115 40 3 -1 84 -40 180 -87z m1175 2 c190 -96 278 -153 314 -205 29
-43 45 -173 38 -310 -7 -134 -18 -172 -58 -213 -61 -63 -312 -196 -402 -213
-114 -22 -292 41 -497 176 -130 87 -150 130 -150 335 0 130 14 195 48 234 19
21 93 73 137 97 17 8 66 35 110 59 44 23 116 62 160 86 44 23 89 43 100 43 11
1 101 -40 200 -89z m1251 -15 c116 -58 230 -122 254 -142 23 -20 53 -60 66
-87 23 -49 24 -61 24 -268 l0 -218 -42 -20 c-23 -11 -47 -20 -52 -20 -6 -1
-29 -9 -51 -20 -22 -11 -45 -19 -51 -20 -7 0 -25 -7 -40 -15 -16 -8 -36 -15
-45 -15 -8 0 -19 -4 -25 -8 -5 -4 -34 -17 -64 -29 -30 -12 -90 -35 -134 -52
-78 -31 -143 -40 -162 -22 -5 5 -38 21 -74 36 -241 100 -318 145 -365 215
l-30 45 -3 192 c-3 180 -2 194 19 235 28 57 66 90 147 131 37 19 83 44 102 55
93 55 258 132 285 132 18 0 113 -41 241 -105z m1071 64 c41 -22 96 -52 121
-65 26 -13 90 -52 142 -87 86 -56 98 -67 124 -122 29 -59 30 -62 30 -235 1
-162 -1 -178 -22 -221 -37 -75 -41 -78 -337 -220 -138 -66 -166 -72 -217 -46
-18 8 -99 43 -179 77 -166 70 -253 123 -289 176 -25 37 -25 41 -25 233 0 108
3 207 7 221 19 65 72 102 368 258 165 86 174 87 277 31z m1158 7 c56 -26 217
-102 299 -142 113 -55 170 -93 196 -132 24 -36 25 -41 25 -222 0 -181 0 -186
-25 -220 -29 -40 -44 -54 -85 -75 -16 -9 -57 -31 -90 -51 -107 -62 -363 -184
-386 -184 -12 0 -54 15 -93 34 -73 35 -98 46 -321 144 l-130 58 0 79 c0 44 6
152 14 240 20 254 32 270 300 402 186 91 217 104 241 93 8 -3 33 -14 55 -24z
m1290 -36 c61 -28 128 -60 151 -71 51 -24 138 -89 162 -120 40 -53 71 -264 72
-501 l0 -56 -42 -20 c-24 -11 -68 -31 -98 -45 -53 -24 -116 -53 -300 -139 -63
-30 -93 -38 -117 -35 -38 7 -402 187 -442 219 -16 13 -39 43 -52 68 -23 42
-24 53 -24 235 0 275 -3 271 320 430 199 98 221 106 245 94 8 -3 65 -30 125
-59z m1164 4 c64 -31 149 -72 189 -91 103 -50 187 -114 214 -165 20 -37 23
-61 26 -184 4 -151 -4 -200 -41 -255 -38 -57 -249 -188 -392 -243 -58 -22
-163 -39 -204 -31 -62 10 -313 142 -372 194 -79 71 -91 111 -93 316 -1 155 0
166 23 207 27 50 82 95 206 167 50 29 97 56 105 62 8 5 29 15 45 24 17 8 50
26 75 40 57 33 72 30 219 -41z m1101 53 c167 -89 228 -122 241 -133 8 -8 19
-14 22 -14 9 0 105 -66 136 -94 13 -11 34 -43 47 -71 22 -47 24 -62 24 -232 0
-217 -7 -245 -79 -297 -25 -18 -68 -43 -96 -55 -27 -12 -57 -26 -66 -30 -9 -5
-61 -28 -115 -50 -54 -23 -107 -46 -116 -51 -47 -26 -140 5 -408 135 -120 58
-164 96 -180 154 -11 43 -15 349 -5 404 10 52 82 123 170 168 39 19 124 64
190 98 160 85 187 93 235 68z m1283 -39 c67 -29 142 -64 167 -78 25 -14 70
-36 100 -50 71 -31 140 -83 165 -123 17 -28 20 -53 24 -195 4 -228 -1 -261
-49 -311 -22 -22 -70 -56 -107 -74 -112 -57 -400 -177 -423 -177 -11 0 -51 14
-88 31 -37 17 -87 40 -112 50 -81 36 -254 124 -287 145 -85 56 -113 140 -112
329 1 150 17 195 93 257 32 25 68 49 79 52 12 3 58 25 102 48 44 24 103 53
130 65 28 12 77 35 110 52 33 17 66 31 73 31 8 0 68 -23 135 -52z m1207 2
c294 -167 328 -191 366 -257 26 -43 27 -48 27 -236 0 -119 -4 -202 -11 -218
-27 -65 -100 -111 -397 -249 -134 -62 -128 -63 -300 20 -250 119 -306 155
-338 214 -20 37 -22 58 -25 223 -3 174 -2 185 19 229 31 61 79 103 180 154 46
23 89 46 94 50 10 9 197 102 225 113 31 13 88 -2 160 -43z m-11462 -831 c240
-106 437 -207 476 -242 52 -48 69 -116 70 -287 1 -168 -14 -223 -77 -273 -23
-18 -62 -42 -87 -52 -25 -11 -67 -32 -93 -47 -26 -15 -50 -28 -52 -28 -2 0
-37 -15 -77 -34 -173 -80 -208 -96 -215 -96 -14 0 -411 203 -443 227 -92 69
-117 125 -130 296 -11 152 -6 199 26 248 32 46 57 64 189 131 61 31 162 83
225 116 63 33 121 61 128 61 7 1 34 -8 60 -20z m1259 -25 c151 -70 304 -147
349 -177 81 -51 97 -97 110 -307 8 -130 -7 -213 -44 -254 -26 -28 -106 -84
-167 -116 -16 -9 -60 -33 -97 -53 -38 -20 -98 -53 -135 -73 -38 -20 -72 -40
-77 -45 -12 -11 -53 -12 -60 -1 -3 5 -97 55 -210 112 -233 117 -274 149 -301
230 -24 70 -24 274 -2 370 23 94 65 129 312 256 110 57 205 104 212 104 6 0
55 -21 110 -46z m7246 -41 c95 -47 188 -94 207 -104 66 -33 119 -90 140 -151
17 -48 20 -84 20 -213 0 -236 -12 -255 -226 -366 -64 -32 -164 -80 -222 -105
-124 -53 -89 -59 -342 65 -191 93 -263 149 -275 214 -9 51 -11 357 -2 409 14
81 61 119 297 236 113 56 211 102 218 102 7 0 90 -39 185 -87z m-13212 31 c48
-11 130 -44 236 -95 226 -111 238 -128 249 -364 7 -142 -11 -253 -48 -293 -40
-43 -126 -92 -283 -161 -60 -27 -168 -77 -213 -98 l-32 -16 -233 117 c-245
124 -258 132 -297 186 -21 31 -25 50 -32 160 -10 168 3 294 34 329 28 31 53
50 93 72 164 87 232 120 286 137 35 12 78 25 94 31 43 14 63 13 146 -5z m1174
1 c56 -13 91 -27 295 -113 103 -43 157 -80 190 -129 25 -36 25 -40 25 -233 l0
-196 -28 -43 c-35 -53 -101 -94 -343 -217 l-191 -97 -236 117 c-165 82 -246
128 -271 154 -52 53 -66 113 -66 277 0 163 15 226 64 274 28 27 261 154 321
174 70 24 143 45 160 45 11 1 47 -5 80 -13z m1225 -4 c59 -17 130 -47 280
-119 101 -49 170 -108 200 -173 17 -37 20 -66 20 -189 0 -132 -2 -150 -24
-196 -35 -76 -76 -108 -247 -196 -85 -44 -184 -96 -221 -115 l-68 -35 -52 22
c-29 12 -93 41 -143 65 -49 23 -108 50 -130 59 -44 20 -107 51 -143 71 -38 21
-68 53 -91 100 -21 42 -22 55 -19 232 l3 188 30 45 c43 63 72 81 315 200 51
25 162 58 200 59 14 1 54 -7 90 -18z m1150 0 c78 -22 227 -94 310 -149 30 -20
68 -56 85 -80 l30 -44 0 -201 c0 -197 -1 -203 -24 -242 -36 -58 -93 -107 -180
-151 -41 -21 -120 -65 -174 -96 -54 -32 -109 -58 -122 -58 -13 0 -46 13 -72
28 -26 16 -55 31 -63 35 -8 4 -31 17 -50 28 -19 12 -65 37 -101 55 -86 43
-160 102 -190 151 -23 37 -24 44 -24 253 0 207 1 216 23 252 34 55 67 79 199
143 113 56 212 92 261 94 12 1 54 -8 92 -18z m3567 4 c79 -18 111 -30 253 -98
220 -105 224 -111 228 -358 4 -212 -3 -253 -53 -303 -27 -27 -196 -136 -210
-136 -2 0 -61 -27 -130 -60 -88 -43 -133 -59 -148 -55 -46 14 -374 179 -410
207 -61 48 -82 98 -101 233 -43 316 -16 385 187 481 29 14 59 29 67 33 48 27
178 67 227 70 12 0 52 -6 90 -14z m1225 -1 c35 -9 68 -20 73 -24 6 -4 53 -26
105 -48 181 -77 240 -117 270 -183 17 -39 20 -66 20 -227 0 -245 -7 -260 -170
-356 -80 -48 -342 -176 -359 -176 -10 0 -53 19 -231 102 -36 17 -90 41 -120
55 -82 36 -108 48 -185 85 l-70 33 2 145 c4 229 35 344 107 401 31 24 181 103
255 133 31 13 65 27 76 31 33 14 129 43 147 44 9 0 45 -6 80 -15z m1189 -4
c107 -29 317 -135 390 -195 78 -66 99 -128 100 -301 1 -137 -16 -203 -68 -256
-25 -26 -106 -72 -270 -154 l-234 -117 -216 109 c-251 126 -280 145 -319 210
-28 49 -28 49 -29 224 0 157 2 178 20 208 54 90 415 287 533 291 12 1 54 -8
93 -19z m1222 1 c27 -6 60 -17 75 -25 30 -15 51 -25 137 -60 106 -44 169 -82
209 -130 40 -46 40 -46 48 -164 9 -118 2 -279 -13 -318 -22 -60 -71 -94 -278
-195 -113 -55 -219 -107 -234 -115 -16 -8 -33 -14 -38 -14 -5 0 -62 25 -126
56 -448 212 -440 205 -450 447 -7 152 12 254 56 301 61 66 254 165 426 217 61
19 98 19 188 0z m1185 0 c134 -35 357 -162 402 -229 25 -37 25 -40 25 -244 0
-200 -1 -209 -24 -252 -27 -49 -102 -104 -211 -154 -36 -16 -99 -45 -140 -65
-144 -67 -146 -68 -188 -52 -20 7 -86 38 -147 68 -60 30 -121 58 -134 62 -43
13 -143 93 -166 132 -28 48 -55 218 -55 346 0 155 26 191 200 277 135 66 191
89 275 114 66 19 77 19 163 -3z m2359 3 c37 -8 96 -28 131 -45 34 -16 67 -29
72 -29 22 0 210 -104 235 -130 37 -39 54 -126 55 -283 0 -169 -17 -235 -74
-282 -36 -29 -173 -108 -246 -142 -263 -123 -211 -123 -465 1 -120 58 -236
121 -257 138 -64 50 -78 96 -78 251 1 231 33 302 174 383 34 19 68 39 76 44
67 43 232 106 287 109 12 0 52 -6 90 -15z m1238 -3 c74 -19 318 -133 372 -174
68 -50 76 -69 83 -196 4 -64 4 -164 0 -223 -7 -99 -9 -109 -38 -146 -31 -38
-174 -129 -282 -179 -208 -97 -201 -94 -234 -83 -33 11 -278 133 -363 181 -86
49 -141 138 -158 254 -4 28 -13 75 -21 105 -39 150 -5 250 101 303 193 97 389
173 450 176 11 0 52 -8 90 -18z m-13750 -846 c17 -8 53 -23 80 -35 28 -11 62
-27 77 -35 14 -8 31 -15 37 -15 19 0 224 -102 260 -129 18 -14 45 -43 60 -66
26 -39 26 -43 26 -215 0 -174 0 -175 -28 -217 -37 -58 -55 -69 -332 -198 -44
-21 -106 -50 -138 -66 -71 -35 -127 -51 -141 -40 -6 4 -34 17 -62 29 -170 71
-329 149 -364 179 -64 53 -70 80 -70 307 0 190 2 208 21 246 23 44 81 95 144
125 22 11 47 25 55 31 8 6 38 20 66 32 28 12 80 35 115 51 97 44 125 46 194
16z m3570 -7 c28 -10 59 -23 70 -28 11 -5 49 -21 85 -36 217 -88 279 -133 299
-216 22 -90 26 -314 7 -400 -26 -116 -68 -148 -351 -268 -50 -21 -94 -41 -151
-68 -28 -14 -34 -13 -98 17 -37 17 -69 31 -71 31 -2 0 -38 16 -82 36 -166 76
-286 140 -315 169 -53 51 -59 81 -61 269 -2 195 5 221 76 281 37 32 386 212
452 233 35 11 71 6 140 -20z m3664 -30 c269 -125 308 -151 342 -226 20 -43 22
-65 23 -242 1 -183 -1 -198 -21 -236 -39 -72 -134 -132 -368 -228 -49 -21 -98
-42 -107 -47 -16 -8 -71 6 -114 30 -11 5 -59 29 -109 52 -298 138 -332 162
-346 251 -4 26 -4 117 0 200 10 173 31 241 90 291 41 34 335 178 431 211 26 9
71 -5 179 -56z m3484 37 c17 -8 34 -15 38 -15 8 0 176 -82 287 -139 76 -40
129 -86 154 -134 20 -37 23 -60 26 -199 4 -150 3 -160 -21 -211 -14 -31 -40
-65 -63 -84 -41 -32 -447 -239 -480 -244 -11 -2 -51 11 -89 30 -305 147 -387
193 -429 239 -60 67 -60 422 0 505 23 32 91 79 195 135 42 22 85 45 95 50 10
6 39 20 64 30 25 11 65 30 90 42 48 22 81 21 133 -5z m2420 -1 c129 -53 158
-67 302 -144 90 -48 140 -88 170 -134 18 -27 20 -51 23 -196 3 -105 0 -181 -8
-209 -20 -74 -80 -120 -300 -228 -107 -52 -209 -102 -225 -110 -29 -15 -34
-13 -155 45 -69 32 -150 71 -180 85 -229 106 -253 120 -296 178 -23 31 -24 41
-24 163 1 167 20 256 66 307 26 29 142 96 239 136 101 44 133 58 220 99 39 19
78 34 88 34 10 0 46 -12 80 -26z m-15546 0 c117 -39 420 -184 457 -219 53 -49
59 -77 53 -231 -8 -175 -32 -272 -79 -321 -26 -27 -139 -103 -154 -103 -5 0
-150 -68 -254 -119 -45 -23 -91 -41 -101 -41 -11 0 -52 18 -92 40 -39 22 -128
68 -197 102 -127 64 -201 122 -220 174 -15 39 -23 300 -12 386 16 121 26 130
285 259 173 87 232 101 314 73z m1207 -5 c131 -40 371 -157 414 -202 44 -45
62 -133 62 -306 0 -262 -23 -294 -295 -411 -27 -12 -63 -27 -80 -35 -16 -8
-61 -28 -99 -45 l-69 -31 -84 36 c-353 152 -411 189 -439 283 -25 84 -26 355
-1 433 24 77 49 97 223 183 156 77 250 115 285 116 9 0 47 -9 83 -21z m2423
-15 c292 -134 339 -164 372 -229 22 -45 24 -58 25 -254 2 -303 8 -294 -329
-451 -188 -87 -172 -84 -242 -50 -32 16 -123 60 -203 99 -159 76 -165 80 -200
131 -25 35 -25 36 -25 270 l0 235 27 40 c33 47 71 74 203 138 258 126 255 125
372 71z m1118 16 c22 -11 44 -19 49 -20 7 0 93 -42 256 -126 83 -42 138 -91
163 -143 20 -42 22 -62 22 -211 0 -248 -7 -258 -278 -391 -89 -44 -188 -94
-219 -110 l-58 -29 -50 20 c-27 11 -57 24 -67 30 -10 5 -54 26 -98 45 -44 20
-96 44 -115 55 -165 87 -201 114 -232 173 -20 38 -22 56 -23 212 0 252 3 257
319 414 221 110 254 118 331 81z m2561 -75 c255 -129 281 -156 309 -320 25
-146 24 -269 -3 -322 -36 -69 -83 -98 -453 -277 l-77 -37 -98 49 c-55 28 -155
77 -224 110 -225 109 -250 148 -250 382 0 211 28 262 189 343 48 24 96 49 106
54 41 22 151 71 175 78 14 4 34 14 45 21 42 30 86 17 281 -81z m1030 76 c116
-37 371 -161 433 -210 26 -21 53 -54 67 -85 22 -47 24 -64 24 -204 0 -235 -16
-260 -257 -381 -89 -45 -127 -63 -276 -130 -43 -20 -50 -20 -75 -7 -15 8 -103
51 -197 96 -234 112 -232 111 -264 145 -65 68 -71 92 -71 293 0 175 1 185 25
232 30 58 51 73 244 170 129 65 217 98 267 99 12 1 48 -8 80 -18z m2412 -5
c82 -29 284 -125 372 -177 94 -56 108 -82 119 -215 5 -65 5 -150 -1 -209 -11
-131 -22 -147 -138 -213 -68 -39 -187 -96 -301 -146 -126 -54 -127 -55 -170
-41 -24 7 -68 25 -96 39 -29 14 -55 26 -57 26 -3 0 -60 27 -128 59 -156 75
-181 99 -202 190 -22 95 -22 310 0 397 22 86 54 113 248 208 241 117 249 119
354 82z m1206 4 c6 -6 16 -10 23 -10 22 0 254 -119 328 -169 22 -14 54 -48 72
-73 28 -43 32 -57 38 -154 4 -59 5 -148 1 -198 -11 -146 -42 -182 -246 -289
-129 -68 -203 -108 -225 -123 -37 -26 -49 -22 -249 70 -44 21 -103 46 -130 57
-112 46 -168 86 -199 143 -21 38 -22 54 -22 251 0 285 -5 278 250 404 152 75
194 94 240 105 29 7 107 -2 119 -14z m2388 -6 c85 -28 341 -160 369 -191 51
-55 59 -96 59 -304 0 -271 -5 -280 -220 -382 -312 -148 -296 -143 -375 -107
-22 10 -74 33 -115 52 -41 19 -101 45 -133 58 -32 13 -84 45 -115 70 -50 40
-60 54 -80 114 -20 60 -23 92 -25 245 -2 174 -2 177 23 208 41 52 107 96 245
163 223 108 246 113 367 74z m2370 6 c29 -12 67 -27 83 -34 17 -8 50 -22 75
-32 89 -34 209 -94 238 -119 17 -14 41 -42 53 -62 21 -34 22 -47 23 -237 0
-194 0 -202 -23 -241 -31 -53 -101 -106 -214 -165 -51 -26 -101 -52 -112 -58
-49 -28 -137 -64 -168 -69 -44 -7 -104 19 -301 129 -143 80 -184 112 -225 173
-25 38 -26 46 -29 204 -6 258 14 289 267 424 53 28 110 57 126 64 17 8 41 21
55 28 35 20 91 18 152 -5z m-17150 -926 c334 -167 333 -166 333 -444 0 -215
-7 -233 -112 -303 -77 -51 -272 -147 -351 -172 -58 -19 -180 -17 -217 3 -11 6
-42 21 -70 34 -27 12 -72 35 -98 50 -26 16 -52 28 -57 28 -6 0 -38 13 -73 30
-35 16 -79 33 -98 36 -70 14 -69 7 -69 301 0 163 4 272 10 284 7 13 21 19 43
19 29 0 345 151 457 218 19 11 47 21 62 21 15 1 119 -45 240 -105z m1023 81
c28 -14 54 -25 58 -25 22 0 357 -175 390 -203 50 -42 67 -101 74 -253 4 -93 2
-138 -11 -197 -16 -72 -21 -80 -69 -122 -32 -28 -106 -72 -192 -114 -187 -92
-228 -105 -318 -99 -67 4 -86 11 -232 85 -199 99 -234 121 -275 173 -32 40
-33 45 -42 174 -12 174 0 271 37 321 26 33 105 86 197 132 20 10 92 46 160 80
170 85 154 82 223 48z m1247 -16 c242 -120 322 -164 383 -210 86 -65 90 -76
90 -284 l0 -180 -29 -46 c-34 -53 -84 -88 -286 -195 -46 -24 -119 -54 -132
-54 -8 0 -19 -5 -25 -11 -6 -6 -40 -12 -75 -12 -70 0 -131 18 -277 82 -52 22
-99 41 -104 41 -13 0 -127 69 -154 93 -39 35 -53 110 -52 274 1 245 12 262
264 398 39 21 95 52 125 68 113 62 146 76 167 77 12 0 59 -19 105 -41z m1341
-68 c243 -122 291 -155 318 -219 25 -57 26 -218 2 -345 -16 -89 -17 -91 -75
-149 -32 -32 -62 -58 -67 -58 -6 0 -49 -18 -98 -41 -48 -22 -106 -49 -128 -59
-22 -10 -71 -33 -110 -51 -38 -18 -77 -32 -85 -31 -32 1 -418 188 -470 227
-19 14 -45 45 -57 68 -20 39 -22 56 -23 226 0 167 2 188 21 225 26 51 79 92
205 157 55 28 131 68 169 88 83 43 144 69 166 70 9 1 113 -48 232 -108z m1090
28 c236 -118 254 -130 305 -203 l27 -39 0 -218 0 -217 -30 -43 c-17 -24 -48
-56 -70 -71 -33 -22 -185 -101 -294 -152 -13 -6 -63 -11 -110 -11 -95 0 -129
13 -311 119 -107 62 -125 76 -158 123 l-27 38 0 210 0 210 27 38 c35 49 89 96
146 127 26 14 66 38 90 53 24 15 53 32 65 38 12 5 36 18 52 29 43 28 87 48
108 49 10 1 91 -36 180 -80z m1055 72 c9 -4 46 -22 82 -39 259 -122 378 -190
423 -240 31 -34 49 -128 51 -262 1 -157 -13 -220 -63 -268 -31 -30 -217 -129
-321 -171 -38 -15 -71 -29 -142 -60 -26 -12 -55 -21 -66 -21 -10 0 -66 23
-123 51 -450 220 -445 214 -462 432 -7 90 -7 148 1 195 10 63 14 70 65 117 40
38 103 75 253 150 259 130 267 133 302 116z m2413 -21 c106 -44 387 -188 416
-213 13 -12 34 -38 46 -57 21 -33 22 -46 22 -245 0 -208 0 -210 -25 -243 -27
-36 -115 -95 -195 -131 -27 -12 -77 -35 -110 -51 -195 -93 -216 -100 -253 -81
-20 10 -61 28 -157 71 -204 91 -273 136 -305 200 -18 35 -20 59 -20 230 0 211
5 231 70 297 33 33 132 103 147 103 4 0 30 16 57 35 27 19 53 35 57 35 4 0 38
18 75 40 38 22 76 40 85 40 9 0 50 -14 90 -30z m2458 -26 c64 -31 125 -61 136
-66 11 -5 47 -24 80 -43 33 -19 69 -39 81 -44 11 -5 44 -31 73 -58 42 -39 55
-59 67 -103 30 -114 13 -358 -28 -408 -42 -50 -241 -163 -417 -237 -113 -47
-154 -39 -390 78 -170 84 -231 127 -261 179 -24 41 -25 50 -25 229 0 181 1
186 25 222 24 34 108 96 194 142 102 54 263 141 281 152 36 20 66 14 184 -43z
m1152 25 c136 -57 384 -182 425 -215 23 -18 48 -48 57 -66 19 -43 30 -255 18
-365 -13 -120 -32 -141 -218 -232 -81 -40 -157 -77 -168 -81 -11 -5 -51 -23
-90 -41 -38 -18 -77 -32 -85 -31 -24 1 -225 89 -396 174 -152 75 -172 111
-181 326 -10 238 19 295 203 389 54 27 153 78 219 112 66 33 125 61 131 61 7
0 45 -14 85 -31z m1189 7 c14 -7 74 -39 134 -70 200 -106 258 -146 293 -205
l28 -46 0 -206 0 -206 -27 -39 c-36 -52 -81 -80 -268 -170 -159 -76 -222 -104
-230 -99 -3 1 -36 17 -75 35 -368 168 -405 190 -445 260 -24 43 -25 51 -25
230 0 172 2 188 22 227 34 63 80 94 288 197 263 129 242 123 305 92z m1192
-12 c83 -35 172 -79 304 -151 157 -84 174 -119 174 -360 0 -202 -11 -233 -100
-292 -51 -34 -85 -52 -240 -123 -229 -106 -205 -101 -291 -67 -213 85 -351
155 -396 201 l-37 38 -8 146 c-13 248 6 341 83 410 24 22 321 200 369 221 39
18 52 16 142 -23z m1164 20 c63 -26 167 -74 189 -86 11 -6 68 -36 126 -65 136
-69 176 -109 195 -194 19 -89 18 -307 -1 -373 -17 -58 -55 -101 -120 -136 -22
-11 -47 -25 -55 -30 -8 -5 -40 -20 -70 -33 -91 -41 -193 -88 -234 -108 -56
-27 -70 -25 -174 26 -50 25 -94 45 -97 45 -4 0 -54 24 -113 52 -73 36 -123 69
-158 103 -49 48 -52 53 -68 140 -10 50 -18 142 -19 205 -2 102 1 120 20 157
25 45 71 88 130 117 21 11 63 34 93 52 108 62 275 144 296 144 12 0 39 -7 60
-16z m-5767 -101 c195 -99 250 -141 270 -206 15 -52 40 -253 45 -370 5 -126 3
-128 -91 -167 -32 -13 -96 -41 -143 -63 -47 -21 -103 -47 -125 -57 -22 -10
-71 -33 -110 -51 -38 -18 -77 -32 -85 -31 -8 0 -47 15 -85 32 -114 52 -177 81
-225 102 -114 50 -138 65 -185 113 -50 50 -51 54 -68 151 -10 54 -21 163 -24
241 l-6 142 94 44 c221 104 282 132 379 174 19 8 53 23 75 34 26 13 50 17 69
13 16 -3 112 -49 215 -101z m7186 -1 c214 -107 246 -135 275 -236 19 -68 47
-437 34 -458 -3 -5 -36 -23 -73 -40 -36 -16 -84 -38 -106 -48 -22 -10 -80 -37
-128 -59 -49 -23 -90 -41 -92 -41 -3 0 -33 -13 -67 -30 -74 -36 -90 -37 -154
-6 -27 13 -80 38 -119 56 -287 132 -315 154 -346 267 -19 68 -47 398 -36 427
3 7 25 23 49 34 24 11 95 45 158 75 63 30 138 64 165 77 28 12 75 33 105 48
68 31 109 41 135 31 11 -4 101 -48 200 -97z m-9561 -3 c225 -113 255 -133 294
-192 26 -40 27 -47 26 -172 0 -166 -22 -258 -72 -309 -19 -20 -75 -59 -125
-88 -96 -55 -117 -66 -232 -118 -137 -63 -127 -62 -220 -24 -81 33 -71 29
-328 149 -114 53 -143 110 -153 301 -6 100 -4 136 11 199 23 95 55 132 171
189 44 22 99 51 124 65 78 45 223 100 264 101 30 0 85 -23 240 -101z m-7924
-779 c46 -32 127 -75 272 -146 116 -56 184 -117 193 -172 4 -20 13 -70 21
-111 19 -101 19 -243 -2 -284 -34 -66 -41 -71 -289 -188 -38 -18 -107 -55
-153 -82 -46 -27 -90 -46 -98 -43 -12 5 -14 83 -14 519 0 515 2 548 34 530 6
-3 22 -14 36 -23z m1256 -30 c202 -95 330 -166 364 -200 10 -10 28 -40 39 -65
30 -67 31 -314 2 -390 -24 -62 -91 -125 -193 -179 -209 -111 -324 -166 -346
-166 -13 0 -111 43 -217 95 -299 147 -314 170 -323 472 -5 169 -4 173 19 208
33 48 72 73 299 188 147 74 201 97 221 93 15 -3 76 -28 135 -56z m16792 -41
c209 -105 269 -146 295 -201 20 -43 32 -276 19 -384 -11 -95 -30 -127 -106
-177 -85 -56 -386 -197 -420 -197 -13 0 -69 22 -123 49 -54 27 -131 66 -172
86 -96 47 -154 89 -185 134 -32 47 -56 194 -56 340 0 185 10 196 315 352 151
77 195 96 221 98 6 1 102 -44 212 -100z m-15592 32 c32 -16 112 -55 177 -86
64 -32 135 -74 157 -94 35 -31 42 -45 55 -109 19 -91 19 -278 1 -354 -16 -66
-41 -102 -99 -141 -66 -44 -403 -207 -430 -207 -26 0 -407 188 -439 217 -32
28 -69 110 -73 161 -3 26 -10 100 -15 164 -9 88 -8 132 1 178 18 92 49 116
329 249 100 48 109 50 191 50 75 1 93 -3 145 -28z m1181 13 c34 -15 172 -79
278 -131 175 -84 207 -132 213 -330 4 -124 2 -135 -21 -186 -38 -83 -106 -131
-402 -281 -82 -42 -163 -76 -178 -76 -16 0 -63 16 -105 36 -286 134 -345 172
-380 247 -26 55 -52 238 -52 367 0 86 3 107 22 140 25 42 84 85 168 119 30 12
82 35 115 51 33 16 78 35 100 44 55 21 193 21 242 0z m1190 -6 c58 -22 78 -32
208 -103 149 -81 161 -102 170 -290 4 -71 2 -167 -3 -213 -9 -74 -14 -87 -48
-129 -34 -42 -166 -137 -225 -163 -13 -6 -64 -33 -114 -60 -49 -27 -99 -49
-111 -49 -12 -1 -43 11 -70 25 -27 14 -92 49 -144 77 -133 70 -202 119 -247
173 l-38 47 0 221 c0 204 2 224 20 253 22 35 90 88 150 118 22 10 47 25 56 33
9 7 52 29 95 47 69 30 90 35 161 35 60 0 97 -6 140 -22z m1165 0 c35 -11 77
-29 93 -38 17 -9 75 -40 130 -69 118 -61 145 -84 177 -142 21 -41 23 -55 23
-229 0 -278 1 -277 -360 -445 -55 -25 -120 -57 -145 -69 -56 -28 -56 -28 -270
79 -259 130 -292 153 -340 231 -23 37 -24 48 -25 204 0 158 1 167 25 210 42
75 174 161 420 273 54 25 195 22 272 -5z m1358 -58 c214 -92 240 -113 261
-206 17 -78 18 -334 1 -400 -22 -85 -65 -119 -300 -235 -113 -56 -215 -101
-226 -101 -12 0 -73 25 -136 55 -63 30 -158 74 -210 96 -110 48 -186 97 -220
143 -22 29 -25 48 -33 178 -10 180 0 275 36 322 30 39 37 43 282 147 188 80
191 81 275 81 84 0 87 -1 270 -80z m1028 61 c33 -11 68 -24 78 -30 11 -6 51
-26 91 -45 100 -48 176 -107 205 -159 28 -50 55 -182 64 -314 6 -78 4 -94 -16
-141 -19 -44 -33 -59 -89 -96 -88 -59 -413 -216 -446 -216 -28 0 -291 127
-410 198 -99 58 -130 94 -149 168 -21 83 -21 258 0 332 25 86 79 131 267 221
215 105 288 119 405 82z m1204 -1 c29 -12 77 -32 106 -45 29 -14 55 -25 58
-25 12 0 210 -102 227 -118 11 -9 30 -39 43 -67 22 -46 24 -63 24 -218 0 -148
-2 -174 -21 -215 -20 -47 -80 -102 -134 -122 -13 -5 -66 -29 -117 -54 -163
-78 -302 -136 -327 -136 -14 0 -116 45 -226 100 -314 157 -315 158 -315 425 0
154 2 181 20 220 33 73 112 126 325 220 33 14 74 32 90 40 48 22 184 19 247
-5z m1170 6 c18 -8 60 -25 93 -38 67 -25 224 -103 270 -133 78 -51 102 -112
117 -289 21 -255 9 -274 -225 -389 -84 -41 -172 -84 -197 -95 -100 -45 -139
-62 -145 -62 -7 0 -92 36 -116 49 -9 5 -61 28 -115 51 -54 23 -103 46 -109 50
-5 4 -21 11 -35 15 -44 13 -124 73 -150 111 -25 37 -25 40 -25 248 0 210 0
211 26 248 14 21 38 47 53 59 34 27 296 159 316 159 8 1 26 7 40 15 33 19 159
19 202 1z m1256 -22 c76 -32 193 -91 302 -151 57 -31 105 -77 125 -119 21 -45
22 -339 1 -389 -24 -58 -62 -83 -286 -192 -118 -57 -227 -111 -242 -119 -14
-8 -39 -14 -54 -14 -16 0 -107 39 -204 86 -96 47 -184 90 -196 96 -11 5 -41
27 -66 49 -41 35 -48 47 -62 109 -22 95 -22 323 0 401 23 83 40 96 246 194
162 76 188 84 274 85 71 0 90 -4 162 -36z m1325 -57 c191 -96 241 -134 254
-196 5 -20 8 -120 8 -222 l0 -185 -28 -43 c-15 -23 -51 -57 -80 -75 -86 -55
-397 -206 -424 -206 -28 0 -369 165 -422 204 -19 14 -44 42 -56 63 -29 50 -56
222 -57 361 -1 99 1 110 24 148 31 49 49 61 208 142 197 100 202 102 305 99
l90 -2 178 -88z m992 74 c39 -11 113 -38 165 -61 310 -135 315 -142 315 -410
0 -201 -8 -228 -89 -294 -48 -40 -450 -246 -479 -246 -19 0 -57 17 -152 70
-33 18 -99 52 -147 76 -96 48 -146 88 -178 139 -18 30 -22 55 -27 192 -11 310
7 347 206 451 205 107 256 118 386 83z m1208 -1 c32 -11 66 -25 75 -29 9 -5
42 -19 72 -31 104 -42 195 -88 211 -107 9 -10 26 -37 38 -60 19 -39 21 -59 21
-238 0 -175 -2 -200 -20 -235 -21 -42 -83 -97 -151 -135 -119 -66 -334 -165
-357 -165 -27 0 -320 142 -397 192 -58 37 -91 77 -110 128 -19 54 -39 303 -30
380 11 97 49 132 235 222 41 20 104 50 139 67 55 26 76 31 140 31 51 0 96 -7
134 -20z m1242 0 c33 -12 128 -55 212 -96 128 -63 158 -82 190 -121 l38 -46 0
-202 c0 -195 -1 -203 -24 -236 -33 -48 -90 -89 -216 -155 -61 -31 -157 -81
-213 -110 -101 -53 -138 -63 -158 -45 -10 10 -80 48 -234 129 -267 139 -290
159 -309 264 -15 88 -14 240 3 311 11 46 22 66 52 94 22 19 48 39 59 44 11 5
34 18 50 28 36 21 162 85 255 129 56 27 77 31 150 31 61 1 103 -5 145 -19z
m-16227 -820 c23 -12 171 -80 176 -80 13 0 151 -72 207 -107 103 -67 109 -84
109 -332 0 -258 -5 -270 -146 -354 -34 -21 -64 -37 -68 -37 -4 0 -34 -13 -69
-29 -153 -72 -203 -93 -232 -98 -32 -5 -35 -4 -255 99 -106 49 -113 52 -180
78 -30 12 -64 26 -75 30 -11 5 -33 13 -50 18 l-30 9 -3 276 c-2 266 -2 277 18
297 11 11 29 20 41 20 12 0 35 6 52 14 18 8 60 26 95 41 69 28 201 88 297 135
65 31 86 35 113 20z m1208 1 c5 -5 52 -27 104 -49 52 -22 131 -60 175 -84 44
-24 91 -49 105 -56 55 -28 111 -90 126 -139 25 -80 30 -267 9 -352 -28 -117
-79 -153 -456 -329 -102 -48 -106 -48 -195 -7 -309 143 -408 200 -444 253 -21
32 -25 54 -32 167 -4 77 -4 162 2 209 10 82 20 101 79 151 30 24 201 118 331
181 52 25 102 49 110 54 20 12 74 12 86 1z m1374 -88 c233 -115 288 -150 326
-205 l29 -41 0 -187 c0 -180 -1 -188 -24 -221 -37 -54 -117 -107 -281 -185
-41 -20 -112 -54 -157 -75 -44 -21 -91 -39 -102 -39 -12 0 -51 14 -87 30 -36
17 -75 35 -87 40 -12 6 -29 14 -37 19 -8 5 -67 35 -132 66 -208 101 -228 133
-228 367 0 140 14 214 48 251 30 34 99 76 245 151 78 41 162 85 187 99 25 14
58 25 75 26 18 1 100 -34 225 -96z m1208 -1 c194 -96 270 -141 304 -179 33
-37 48 -112 48 -246 0 -247 -17 -269 -315 -417 -115 -56 -222 -104 -239 -107
-25 -4 -72 15 -241 97 -330 161 -334 166 -335 423 0 247 8 259 295 404 77 39
160 82 185 96 25 14 58 25 73 26 17 1 106 -38 225 -97z m979 83 c15 -8 107
-52 204 -98 219 -105 236 -123 251 -255 6 -48 8 -153 5 -234 -4 -141 -6 -149
-34 -195 -28 -46 -37 -52 -225 -146 -109 -54 -212 -100 -230 -103 -26 -5 -57
6 -143 46 -292 137 -309 147 -347 209 -22 35 -23 45 -23 262 0 224 0 226 25
263 24 35 87 83 160 121 183 95 289 144 307 145 12 0 34 -7 50 -15z m1219 -15
c125 -48 400 -191 444 -230 49 -44 67 -100 76 -240 11 -166 -24 -272 -106
-322 -70 -42 -269 -145 -384 -198 -96 -45 -104 -45 -186 -8 -314 139 -460 223
-460 264 0 8 -6 27 -14 43 -18 34 -40 297 -31 370 9 68 42 105 147 160 42 22
99 54 128 71 28 16 55 30 59 30 5 0 30 10 57 22 58 26 164 65 180 67 6 0 47
-13 90 -29z m1245 -6 c96 -42 285 -138 344 -176 93 -59 115 -108 115 -250 0
-129 -25 -269 -56 -315 -35 -52 -56 -65 -281 -179 -206 -106 -207 -106 -248
-94 -22 7 -44 16 -50 20 -5 4 -89 47 -185 96 -96 48 -196 104 -221 123 -66 50
-83 110 -84 285 0 153 16 213 69 265 37 36 49 43 141 91 33 17 119 62 190 99
72 38 142 69 156 70 14 0 63 -15 110 -35z m3705 -76 c136 -67 239 -125 262
-148 55 -51 74 -119 74 -274 0 -159 -17 -222 -75 -272 -48 -41 -456 -244 -492
-244 -21 0 -123 44 -315 138 -111 53 -202 116 -230 158 -24 37 -25 42 -25 223
0 263 -18 240 330 428 57 30 130 66 185 91 14 6 34 11 44 11 11 1 120 -49 242
-111z m1018 97 c11 -8 26 -15 33 -15 15 0 191 -85 308 -148 153 -82 170 -109
179 -287 8 -152 -4 -264 -33 -301 -42 -53 -127 -102 -415 -239 -111 -53 -116
-53 -223 -4 -254 116 -380 186 -417 230 -38 45 -60 160 -53 288 8 179 36 223
192 306 39 21 75 41 80 45 6 5 53 30 105 56 170 87 207 97 244 69z m1203 0
c15 -8 78 -38 138 -66 239 -110 256 -121 295 -184 25 -39 25 -43 25 -260 l0
-220 -26 -44 c-33 -54 -52 -66 -214 -145 -206 -100 -242 -116 -266 -116 -12 0
-56 16 -98 36 -368 176 -403 197 -443 269 -21 37 -22 54 -23 215 0 170 1 176
25 219 27 46 99 103 180 141 25 12 59 29 75 38 135 74 254 131 277 131 14 1
39 -6 55 -14z m1151 5 c9 -5 45 -21 80 -35 81 -33 288 -141 329 -171 17 -13
40 -38 51 -56 48 -78 75 -405 40 -478 -9 -19 -27 -45 -40 -57 -23 -21 -143
-96 -182 -114 -12 -6 -48 -25 -81 -44 -86 -48 -200 -105 -210 -105 -5 0 -41
15 -79 34 -99 47 -259 123 -271 127 -30 11 -144 82 -159 98 -41 45 -56 123
-56 285 0 252 27 293 277 417 208 103 262 121 301 99z m1198 -6 c22 -8 53 -22
71 -30 17 -8 35 -14 40 -14 8 0 78 -28 208 -85 17 -7 53 -21 80 -31 28 -10 61
-24 75 -31 14 -7 30 -13 37 -13 28 0 35 -40 24 -143 -6 -56 -16 -159 -21 -229
-10 -136 -26 -182 -78 -230 -33 -30 -109 -76 -177 -107 -27 -12 -57 -26 -66
-31 -53 -28 -211 -90 -229 -90 -12 0 -61 19 -108 41 -48 23 -125 59 -172 82
-105 50 -188 105 -216 144 -50 68 -79 401 -42 470 24 44 72 87 127 114 25 12
64 34 86 48 63 39 288 151 306 151 9 0 34 -7 55 -16z m-7101 -31 c121 -49 329
-158 360 -190 44 -46 63 -109 76 -258 13 -150 6 -236 -24 -277 -26 -36 -99
-87 -222 -153 -49 -27 -112 -62 -140 -78 -27 -15 -66 -35 -85 -44 -40 -18 -52
-15 -185 47 -44 21 -125 57 -180 81 -117 50 -174 90 -204 141 -20 35 -21 51
-21 248 0 279 6 290 180 377 155 77 245 116 280 124 46 9 115 2 165 -18z
m1215 3 c100 -39 288 -121 310 -134 44 -27 91 -76 111 -115 18 -35 20 -55 17
-230 -4 -224 -10 -246 -93 -309 -49 -38 -181 -112 -337 -190 -84 -42 -96 -43
-168 -11 -35 16 -234 110 -340 161 -30 15 -78 50 -106 79 -57 56 -61 70 -86
272 -18 149 -1 214 72 278 23 20 217 123 232 123 4 0 46 19 95 42 48 23 102
45 118 49 39 10 130 2 175 -15z m7210 -1 c19 -10 42 -22 50 -25 82 -38 239
-127 264 -150 17 -17 34 -30 38 -30 3 0 17 -17 30 -37 22 -37 23 -45 23 -243
0 -202 0 -205 -25 -241 -33 -49 -153 -126 -334 -217 -173 -87 -137 -89 -356
15 -233 111 -262 127 -304 169 -57 56 -76 133 -83 329 l-6 150 34 44 c19 25
50 53 69 64 79 45 347 178 375 187 48 15 185 6 225 -15z m-11395 -875 c152
-64 306 -139 343 -167 18 -13 45 -43 60 -66 l27 -42 0 -195 c0 -190 -1 -196
-25 -235 -34 -54 -63 -78 -145 -119 -298 -147 -391 -173 -493 -138 -59 21
-185 84 -280 140 -29 18 -56 32 -59 32 -18 0 -96 77 -115 113 -20 38 -22 57
-22 192 -1 135 2 155 23 205 33 77 86 120 261 209 25 13 95 49 155 81 102 53
112 56 140 45 17 -7 75 -31 130 -55z m8395 -2 c69 -33 141 -67 160 -76 69 -33
158 -88 193 -119 64 -56 71 -81 75 -246 4 -134 2 -154 -18 -208 -17 -44 -35
-70 -69 -99 -25 -22 -50 -40 -55 -40 -4 0 -45 -22 -90 -49 -78 -47 -163 -90
-252 -126 -88 -36 -224 10 -489 166 -68 40 -81 52 -104 96 -51 102 -5 453 70
524 37 37 101 80 169 117 215 115 246 130 265 125 11 -3 76 -32 145 -65z
m-14390 37 c22 -14 123 -65 223 -114 284 -137 291 -146 291 -386 0 -148 -1
-163 -23 -204 -28 -53 -75 -98 -138 -130 -27 -14 -55 -30 -63 -37 -8 -6 -58
-34 -111 -62 -113 -59 -171 -97 -162 -106 11 -10 50 -7 80 8 26 13 54 26 136
60 17 7 52 23 77 34 192 89 225 97 278 67 15 -8 59 -28 97 -46 297 -133 338
-158 378 -232 20 -39 22 -55 22 -222 0 -266 0 -266 -334 -434 -240 -121 -234
-120 -314 -75 -100 54 -385 193 -422 204 -22 7 -47 16 -55 20 -13 6 -15 109
-18 821 -2 751 -1 859 13 859 3 0 23 -11 45 -25z m1316 -64 c98 -49 201 -99
228 -111 67 -30 102 -57 129 -100 20 -32 22 -47 21 -166 -2 -191 -33 -306 -98
-354 -24 -17 -146 -90 -152 -90 -2 0 -69 -32 -150 -71 -128 -62 -150 -70 -182
-64 -20 4 -41 10 -47 15 -5 4 -39 20 -75 34 -36 15 -74 31 -85 36 -11 5 -42
18 -70 30 -193 82 -233 120 -246 233 -18 158 -5 382 24 412 8 8 17 18 19 23 9
21 95 73 270 162 106 53 202 98 214 99 11 0 101 -39 200 -88z m1218 -7 c276
-138 296 -162 315 -384 6 -74 16 -178 21 -230 9 -92 8 -96 -13 -112 -12 -10
-31 -20 -42 -24 -11 -3 -40 -15 -65 -26 -50 -22 -63 -28 -135 -58 -63 -27 -80
-34 -135 -58 -157 -68 -174 -71 -240 -37 -14 7 -97 48 -184 91 -88 43 -177 93
-198 112 -56 50 -71 113 -72 287 -1 155 12 221 52 270 31 38 114 91 222 141
47 21 121 58 165 81 44 22 88 42 99 42 10 1 105 -42 210 -95z m1103 50 c243
-114 400 -195 429 -221 60 -54 68 -83 72 -245 4 -139 2 -150 -21 -201 -15 -33
-41 -67 -68 -89 -40 -33 -486 -268 -508 -268 -5 0 -66 27 -135 60 -70 33 -128
60 -131 60 -18 0 -171 83 -202 110 -66 59 -73 86 -73 304 0 165 3 197 19 233
30 65 85 108 241 183 80 39 165 82 190 94 25 13 55 24 67 25 13 0 67 -20 120
-45z m1250 -50 c226 -113 260 -141 294 -242 20 -59 23 -87 23 -242 l1 -175
-29 -38 c-34 -44 -94 -85 -234 -158 -196 -103 -259 -104 -462 -4 -52 25 -111
54 -130 63 -53 26 -78 47 -108 89 l-27 38 0 221 0 220 28 42 c25 38 137 132
157 132 5 0 46 22 92 49 147 86 173 100 187 101 8 0 102 -43 208 -96z m2344
36 c68 -33 131 -65 139 -70 8 -5 35 -19 59 -30 65 -30 128 -86 152 -133 13
-27 24 -78 30 -142 5 -55 14 -139 19 -186 6 -47 10 -110 10 -141 0 -63 -8 -73
-86 -106 -28 -12 -80 -34 -115 -50 -35 -16 -100 -43 -144 -61 -44 -18 -91 -39
-105 -46 -65 -34 -101 -30 -235 30 -16 7 -57 23 -90 36 -33 13 -64 26 -70 30
-5 4 -26 12 -45 17 -19 6 -60 20 -90 32 -30 12 -69 26 -87 31 -70 21 -72 27
-78 207 -2 89 0 197 5 238 17 131 33 143 480 357 52 26 102 46 111 46 9 1 72
-26 140 -59z m1201 -14 c357 -180 385 -214 395 -496 5 -124 4 -139 -15 -177
-33 -63 -111 -116 -332 -225 -147 -72 -207 -82 -302 -49 -53 18 -218 101 -283
142 -16 10 -43 25 -60 33 -55 26 -102 86 -119 152 -21 81 -21 272 -1 341 16
52 64 111 112 135 15 8 48 26 73 40 97 54 157 87 200 108 25 12 65 33 90 46
25 13 56 24 70 24 14 0 91 -33 172 -74z m1056 65 c16 -9 40 -20 157 -71 138
-61 304 -148 336 -178 63 -56 69 -79 69 -272 0 -159 -2 -176 -22 -217 -20 -40
-83 -103 -104 -103 -4 0 -15 -6 -23 -13 -9 -8 -40 -24 -68 -36 -29 -12 -92
-40 -140 -62 -152 -71 -187 -86 -209 -93 -26 -8 -111 27 -329 134 -167 82
-189 98 -224 165 -19 36 -21 56 -21 220 0 168 2 183 24 230 13 28 32 58 42 67
30 27 446 236 472 237 12 1 30 -3 40 -8z m2439 -15 c26 -14 93 -46 148 -71
261 -123 289 -138 330 -181 24 -24 45 -57 49 -75 8 -41 8 -307 0 -348 -14 -68
-74 -114 -299 -227 -115 -58 -227 -112 -247 -119 -42 -16 -45 -15 -188 52 -41
20 -100 46 -130 60 -202 90 -230 113 -254 209 -22 87 -22 297 0 378 27 98 47
114 339 262 88 45 170 82 182 83 11 0 43 -10 70 -23z m1349 -72 c120 -60 207
-110 234 -135 62 -58 78 -121 90 -349 6 -102 12 -195 15 -206 6 -28 -9 -38
-175 -108 -74 -32 -148 -64 -165 -71 -16 -7 -47 -20 -67 -29 -21 -9 -53 -23
-70 -31 -84 -38 -74 -41 -377 109 -144 70 -163 84 -199 140 -27 41 -27 41 -27
236 0 284 -5 277 320 441 104 53 199 97 210 98 11 0 106 -42 211 -95z m3454
51 c100 -42 280 -124 368 -168 55 -28 115 -88 123 -124 11 -46 10 -355 -1
-394 -6 -20 -25 -51 -43 -70 -30 -31 -210 -127 -352 -189 -27 -12 -63 -27 -80
-35 -84 -37 -93 -38 -137 -20 -172 69 -434 204 -481 248 -40 37 -46 49 -56
108 -16 94 -14 296 3 354 22 73 75 113 256 193 25 11 92 42 150 69 150 69 153
71 170 62 8 -4 44 -19 80 -34z m1318 -52 c295 -147 309 -168 319 -475 6 -167
5 -178 -15 -210 -19 -30 -100 -98 -117 -98 -8 0 -68 -27 -222 -101 -159 -76
-160 -76 -228 -45 -30 14 -81 38 -112 52 -280 129 -323 156 -353 225 -20 48
-21 63 -18 233 6 261 3 257 322 417 105 53 200 97 210 98 11 0 107 -43 214
-96z m-7297 54 c30 -14 83 -39 119 -55 36 -16 97 -44 135 -62 39 -18 86 -40
107 -49 69 -32 116 -84 133 -150 19 -74 19 -235 0 -316 -12 -53 -21 -66 -76
-117 -34 -32 -65 -58 -69 -58 -5 0 -32 -16 -61 -35 -68 -45 -204 -112 -266
-130 -87 -27 -181 -14 -288 38 -64 31 -110 52 -159 72 -55 22 -139 79 -169
115 -32 38 -40 108 -36 312 4 137 6 157 26 189 32 50 89 88 254 166 79 38 164
79 189 91 53 26 86 24 161 -11z m4733 14 c312 -146 373 -182 414 -245 l27 -41
0 -220 c0 -215 -1 -222 -24 -267 -29 -55 -73 -85 -226 -157 -60 -29 -121 -58
-135 -65 -14 -7 -41 -19 -61 -25 -38 -12 -48 -10 -174 49 -33 15 -106 48 -162
73 -116 52 -199 104 -228 144 -19 26 -20 44 -20 248 l0 221 32 41 c27 34 156
123 178 123 5 0 91 40 260 121 50 24 68 24 119 0z m-6539 -876 c31 -8 93 -32
138 -54 45 -21 113 -53 151 -71 38 -17 90 -52 116 -76 46 -43 48 -48 54 -112
9 -89 -9 -314 -29 -379 -27 -87 -75 -125 -295 -236 -105 -53 -200 -97 -209
-97 -10 0 -85 33 -167 74 -82 41 -160 80 -174 86 -80 35 -146 93 -171 148 -17
39 -19 68 -19 227 0 242 13 275 140 342 302 162 352 178 465 148z m1201 0 c32
-8 127 -49 212 -91 254 -126 262 -138 262 -399 0 -194 -9 -233 -67 -286 -25
-23 -127 -89 -138 -89 -2 0 -78 -36 -169 -81 l-166 -81 -57 27 c-88 41 -133
61 -188 85 -108 48 -171 77 -259 120 l-91 45 2 150 c3 164 23 290 55 343 27
44 64 70 190 136 59 31 116 60 125 66 32 19 177 68 205 69 15 1 53 -6 84 -14z
m-8296 -22 c55 -18 81 -30 235 -103 157 -75 181 -101 200 -206 19 -106 19
-249 -1 -335 -18 -81 -49 -122 -116 -157 -23 -13 -50 -27 -58 -32 -8 -5 -54
-27 -102 -49 -48 -22 -125 -59 -173 -81 -47 -22 -94 -40 -104 -40 -10 0 -90
36 -179 80 -88 44 -165 80 -171 80 -5 0 -33 14 -62 31 -148 87 -158 108 -161
330 -3 208 3 237 52 287 57 57 333 191 440 213 45 10 143 1 200 -18z m1136 16
c32 -5 73 -17 91 -25 17 -7 36 -14 41 -14 6 0 23 -7 39 -15 15 -7 80 -39 143
-69 132 -63 137 -67 170 -121 24 -39 25 -45 25 -235 0 -183 -1 -197 -22 -230
-35 -56 -71 -83 -203 -150 -69 -35 -168 -85 -220 -112 -52 -26 -104 -48 -115
-48 -11 0 -56 17 -100 39 -44 21 -125 58 -180 82 -124 54 -211 104 -241 138
-40 45 -54 115 -54 273 0 179 14 240 66 285 58 51 346 186 439 206 35 8 60 7
121 -4z m1298 -24 c90 -34 273 -131 324 -173 24 -19 55 -53 70 -76 26 -40 27
-47 30 -205 5 -232 -13 -272 -153 -344 -174 -90 -400 -197 -416 -197 -9 0 -77
30 -150 66 -74 36 -147 72 -164 79 -170 76 -203 100 -234 168 -19 41 -21 65
-21 222 0 157 2 181 21 223 12 26 31 55 42 65 57 46 347 179 432 197 58 13
146 3 219 -25z m1054 25 c35 -6 71 -15 80 -20 9 -5 40 -19 67 -31 133 -56 232
-117 269 -167 12 -16 22 -54 28 -111 13 -107 5 -360 -12 -391 -17 -31 -90
-110 -102 -110 -6 0 -36 -15 -67 -34 -107 -64 -296 -156 -321 -156 -14 0 -30
4 -36 9 -5 5 -72 42 -149 82 -199 103 -231 125 -285 200 -25 34 -25 35 -25
254 l0 220 27 38 c15 21 38 47 52 58 46 36 271 143 326 155 71 16 73 16 148 4z
m1198 0 c119 -19 421 -156 471 -213 40 -46 56 -117 57 -262 2 -193 -31 -273
-133 -324 -20 -10 -67 -34 -106 -53 -64 -33 -135 -66 -255 -120 -25 -11 -57
-27 -72 -34 -14 -8 -35 -14 -46 -14 -11 0 -98 41 -194 90 -95 50 -182 94 -193
99 -40 17 -116 95 -139 140 -41 81 -62 343 -33 412 19 45 46 68 142 120 102
55 130 68 245 117 123 52 158 58 256 42z m1205 1 c62 -10 387 -163 427 -201
39 -37 51 -63 67 -154 29 -167 12 -319 -42 -379 -23 -25 -169 -115 -291 -178
-53 -28 -120 -64 -149 -80 -65 -36 -79 -36 -150 0 -32 16 -111 56 -176 88
-159 78 -158 78 -193 110 -43 40 -73 96 -78 150 -25 227 -28 322 -12 371 9 27
29 60 44 75 26 24 240 132 327 164 46 18 133 41 155 42 8 1 40 -3 71 -8z
m3569 -2 c35 -5 69 -14 75 -18 5 -5 21 -12 35 -16 14 -3 52 -19 85 -35 33 -15
83 -38 110 -51 83 -38 151 -85 173 -120 31 -52 44 -252 26 -418 -9 -83 -52
-123 -227 -209 -263 -129 -313 -152 -334 -152 -11 0 -49 15 -84 34 -35 18
-122 64 -194 101 -205 107 -214 112 -250 165 -26 37 -28 48 -33 172 -5 148 7
255 35 291 29 39 136 112 238 161 17 8 46 24 65 35 74 42 141 66 200 70 8 0
44 -4 80 -10z m1206 1 c113 -18 401 -148 460 -206 19 -20 39 -46 43 -57 14
-37 22 -277 13 -364 -7 -58 -15 -89 -30 -108 -34 -43 -102 -89 -187 -125 -44
-19 -135 -63 -203 -97 -118 -60 -167 -74 -188 -53 -8 8 -175 92 -269 135 -175
80 -221 116 -244 190 -21 67 -25 279 -7 364 19 89 48 124 140 171 34 17 68 35
76 40 24 15 146 70 154 70 5 0 22 7 39 15 31 14 97 32 127 34 8 0 43 -4 76 -9z
m1185 0 c30 -5 63 -14 74 -20 11 -5 49 -21 85 -36 190 -77 240 -104 277 -152
39 -51 48 -127 41 -338 -4 -124 -8 -146 -27 -178 -20 -32 -99 -106 -114 -106
-3 0 -25 -13 -49 -29 -24 -15 -72 -44 -108 -63 -36 -20 -89 -50 -119 -67 -73
-43 -100 -42 -206 12 -49 25 -146 72 -215 105 -144 68 -180 94 -212 160 -21
44 -23 59 -23 227 0 170 2 182 24 223 33 61 72 89 245 175 184 93 229 105 327
87z m1284 -22 c28 -11 78 -33 113 -49 34 -16 65 -29 68 -29 14 0 143 -83 167
-108 58 -61 68 -183 31 -410 -18 -112 -38 -146 -119 -201 -74 -50 -372 -201
-396 -201 -21 0 -378 175 -431 211 -19 13 -48 39 -63 57 -27 32 -29 40 -36
175 -9 150 -4 280 13 334 16 55 92 109 228 162 30 12 64 26 75 31 140 63 238
71 350 28z m1111 22 c33 -5 88 -23 122 -40 34 -16 67 -30 73 -30 27 0 205 -98
240 -133 51 -52 60 -85 66 -259 6 -164 -9 -250 -51 -299 -31 -36 -115 -84
-291 -164 -44 -20 -107 -50 -140 -66 -33 -16 -69 -29 -79 -29 -10 0 -92 36
-182 80 -90 44 -166 80 -168 80 -3 0 -32 16 -65 36 -111 66 -131 116 -131 334
0 169 12 228 59 278 45 49 180 129 297 175 120 47 155 52 250 37z m1225 0 c30
-5 63 -14 74 -19 11 -6 52 -24 90 -41 189 -85 254 -125 288 -180 20 -33 22
-49 25 -233 5 -281 6 -279 -270 -421 -78 -40 -165 -85 -192 -100 -27 -14 -57
-26 -67 -26 -11 0 -101 41 -201 92 -143 72 -195 104 -240 146 -32 30 -58 60
-58 66 0 6 -7 25 -16 41 -9 17 -22 57 -29 90 -8 33 -18 78 -24 100 -6 22 -11
79 -11 126 0 76 3 89 25 119 14 19 45 48 68 63 45 31 200 107 218 107 6 0 23
6 37 14 49 25 107 46 152 55 63 12 70 12 131 1z"/>
<path d="M4990 260 c0 -5 5 -10 10 -10 6 0 10 5 10 10 0 6 -4 10 -10 10 -5 0
-10 -4 -10 -10z"/>
</g>
</svg>
